<svg width="80" height="80" viewBox="0 0 80 80" fill="none" xmlns="http://www.w3.org/2000/svg">
<path fill-rule="evenodd" clip-rule="evenodd" d="M0 33H5V35H2V66H64.43V63H66.43V68H0V33Z" fill="white"/>
<path fill-rule="evenodd" clip-rule="evenodd" d="M47.2877 23H6.99998V61H76.0093L76 60.9876V43H74V58.3416L66.4286 48.3243V43H64.4286V45.6782L47.2877 23ZM71.9906 59H66.4286V51.6411L71.9906 59ZM64.4286 59V48.9951L46.2923 25H8.99998V59H16.5714V33H18.5714V59H26.1428V33H28.1428V59H35.7142V33H37.7142V59H45.2857V33H47.2857V59H54.8572V43H56.8572V59H64.4286Z" fill="white"/>
<path fill-rule="evenodd" clip-rule="evenodd" d="M65.6762 18.1304C67.2009 17.4528 69.2371 17.0592 71.433 17.0592C73.6291 17.0592 75.6653 17.4528 77.1899 18.1304C77.951 18.4687 78.6288 18.8973 79.1299 19.4239C79.6358 19.9555 80.0001 20.6326 80.0001 21.4223C80.0001 22.212 79.6358 22.8891 79.1299 23.4208C78.6288 23.9473 77.951 24.376 77.1899 24.7142C75.6653 25.3918 73.6291 25.7855 71.433 25.7855C69.2371 25.7855 67.2009 25.3918 65.6762 24.7142C64.9152 24.376 64.2374 23.9473 63.7363 23.4208C63.2303 22.8891 62.8661 22.2121 62.8661 21.4223C62.8661 20.6326 63.2303 19.9555 63.7363 19.4239C64.2374 18.8973 64.9152 18.4687 65.6762 18.1304ZM65.1851 20.8026C64.9253 21.0757 64.8661 21.2834 64.8661 21.4223C64.8661 21.5613 64.9253 21.769 65.1851 22.042C65.4499 22.3202 65.8802 22.6162 66.4885 22.8866C67.7026 23.4262 69.4499 23.7855 71.433 23.7855C73.4162 23.7855 75.1636 23.4262 76.3777 22.8866C76.986 22.6162 77.4163 22.3202 77.6811 22.042C77.9409 21.769 78.0001 21.5613 78.0001 21.4223C78.0001 21.2834 77.9409 21.0757 77.6811 20.8026C77.4163 20.5244 76.986 20.2284 76.3777 19.9581C75.1636 19.4185 73.4162 19.0592 71.433 19.0592C69.4499 19.0592 67.7026 19.4185 66.4885 19.9581C65.8802 20.2284 65.4499 20.5244 65.1851 20.8026Z" fill="white"/>
<path fill-rule="evenodd" clip-rule="evenodd" d="M63.8661 20.423C64.4183 20.423 64.8661 20.8707 64.8661 21.423V31.5124C64.8661 31.6507 64.9249 31.8579 65.1831 32.1303C65.4461 32.4079 65.8742 32.7038 66.4805 32.9743C67.6908 33.5143 69.4376 33.8755 71.433 33.8755C73.4286 33.8755 75.1753 33.5143 76.3856 32.9743C76.992 32.7038 77.4201 32.4079 77.6831 32.1303C77.9413 31.8579 78.0001 31.6507 78.0001 31.5124V21.423C78.0001 20.8707 78.4478 20.423 79.0001 20.423C79.5524 20.423 80.0001 20.8707 80.0001 21.423V31.5124C80.0001 32.2989 79.6385 32.9745 79.1348 33.5061C78.6359 34.0325 77.9604 34.4618 77.2005 34.8008C75.6783 35.4799 73.6415 35.8755 71.433 35.8755C69.2247 35.8755 67.1879 35.4799 65.6657 34.8008C64.9058 34.4618 64.2303 34.0325 63.7314 33.5061C63.2277 32.9745 62.8661 32.2989 62.8661 31.5124V21.423C62.8661 20.8707 63.3138 20.423 63.8661 20.423Z" fill="white"/>
<path fill-rule="evenodd" clip-rule="evenodd" d="M63.8661 25.4664C64.4183 25.4664 64.8661 25.9141 64.8661 26.4664C64.8661 26.6048 64.9249 26.8119 65.1831 27.0844C65.4461 27.3619 65.8742 27.6579 66.4805 27.9284C67.6908 28.4684 69.4376 28.8296 71.433 28.8296C73.4286 28.8296 75.1753 28.4684 76.3856 27.9284C76.992 27.6579 77.4201 27.3619 77.6831 27.0844C77.9413 26.8119 78.0001 26.6048 78.0001 26.4664C78.0001 25.9141 78.4478 25.4664 79.0001 25.4664C79.5524 25.4664 80.0001 25.9141 80.0001 26.4664C80.0001 27.2529 79.6385 27.9286 79.1348 28.4601C78.6359 28.9866 77.9604 29.4158 77.2005 29.7549C75.6783 30.434 73.6415 30.8296 71.433 30.8296C69.2247 30.8296 67.1879 30.434 65.6657 29.7549C64.9058 29.4158 64.2303 28.9866 63.7314 28.4601C63.2276 27.9286 62.8661 27.253 62.8661 26.4664C62.8661 25.9141 63.3138 25.4664 63.8661 25.4664Z" fill="white"/>
<path fill-rule="evenodd" clip-rule="evenodd" d="M64.6818 12.0148C67.1816 11.8926 69.6601 12.5307 71.7903 13.8453C72.2603 14.1354 72.4062 14.7515 72.1161 15.2215C71.8261 15.6915 71.21 15.8374 70.74 15.5473C68.9476 14.4412 66.8614 13.9063 64.7579 14.0135C64.741 14.0143 64.724 14.0148 64.707 14.0148C62.7204 14.0148 60.9733 14.3758 59.7603 14.9161C59.1525 15.1869 58.7226 15.4831 58.4582 15.7612C58.1985 16.0343 58.14 16.2411 58.14 16.3779C58.14 16.5218 58.2066 16.7504 58.5195 17.0558C58.8355 17.3642 59.3425 17.6862 60.0441 17.976C60.5546 18.1868 60.7975 18.7715 60.5866 19.282C60.3758 19.7924 59.791 20.0353 59.2806 19.8245C58.4352 19.4753 57.681 19.0321 57.1226 18.4871C56.5611 17.9391 56.14 17.2261 56.14 16.3779C56.14 15.5898 56.5041 14.9138 57.0089 14.3829C57.5091 13.857 58.1859 13.428 58.9464 13.0892C60.4643 12.4131 62.491 12.0178 64.6818 12.0148Z" fill="white"/>
<path fill-rule="evenodd" clip-rule="evenodd" d="M57.14 15.3782C57.6923 15.3782 58.14 15.8259 58.14 16.3782V26.4675C58.14 26.6114 58.2066 26.8401 58.5195 27.1455C58.8355 27.4539 59.3425 27.7758 60.044 28.0655C60.5545 28.2763 60.7974 28.861 60.5866 29.3715C60.3758 29.882 59.7911 30.1249 59.2807 29.9141C58.4352 29.5649 57.681 29.1218 57.1226 28.5768C56.5611 28.0288 56.14 27.3157 56.14 26.4675V16.3782C56.14 15.8259 56.5877 15.3782 57.14 15.3782Z" fill="white"/>
<path fill-rule="evenodd" clip-rule="evenodd" d="M57.14 20.423C57.6923 20.423 58.14 20.8707 58.14 21.423C58.14 21.5669 58.2066 21.7955 58.5195 22.1009C58.8355 22.4093 59.3425 22.7313 60.0441 23.0211C60.5546 23.2319 60.7975 23.8166 60.5866 24.3271C60.3758 24.8375 59.791 25.0804 59.2806 24.8696C58.4352 24.5204 57.681 24.0772 57.1226 23.5322C56.5611 22.9842 56.14 22.2712 56.14 21.423C56.14 20.8707 56.5877 20.423 57.14 20.423Z" fill="white"/>
</svg>
