<svg width="48" height="48" viewBox="0 0 48 48" fill="none" xmlns="http://www.w3.org/2000/svg">
<path d="M17.4545 11.8442H44.2597V28.6754H17.4545V11.8442Z" stroke="white" stroke-width="2"/>
<path d="M20.4468 15.0856C20.1974 15.0856 19.9481 15.335 19.9481 15.5843V24.9973C19.9481 25.309 20.1974 25.496 20.4468 25.496C20.6961 25.496 20.9455 25.2467 20.9455 24.9973V15.5843C20.9455 15.335 20.6961 15.0856 20.4468 15.0856ZM24.561 14.9609C24.3117 14.9609 24.0623 15.2103 24.0623 15.4596V24.935C24.0623 25.2467 24.3117 25.4337 24.561 25.4337C24.8104 25.4337 25.0597 25.1843 25.0597 24.935V15.4596C25.0597 15.2103 24.8727 14.9609 24.561 14.9609ZM28.3636 15.0856C28.1143 15.0856 27.8649 15.335 27.8649 15.5843V24.9973C27.8649 25.309 28.1143 25.496 28.3636 25.496C28.613 25.496 28.8623 25.2467 28.8623 24.9973V15.5843C28.8623 15.335 28.613 15.0856 28.3636 15.0856Z" fill="white"/>
<path d="M3.74023 19.3247H17.1428H17.4545V28.6754H30.5454V36.1559H3.74023V19.3247Z" stroke="white" stroke-width="2"/>
<path d="M19.2 28.1768C18.9506 28.1768 18.7013 28.4262 18.7013 28.6755V32.4781C18.7013 32.7898 18.9506 32.9768 19.2 32.9768C19.4493 32.9768 19.6987 32.7275 19.6987 32.4781V28.6755C19.6987 28.4262 19.4493 28.1768 19.2 28.1768ZM23.1272 28.1768C22.8779 28.1768 22.6285 28.4262 22.6285 28.6755V32.4781C22.6285 32.7898 22.8779 32.9768 23.1272 32.9768C23.3766 32.9768 23.6259 32.7275 23.6259 32.4781V28.6755C23.6259 28.4262 23.4389 28.1768 23.1272 28.1768ZM27.1169 28.1768C26.8675 28.1768 26.6182 28.4262 26.6182 28.6755V32.4781C26.6182 32.7898 26.8675 32.9768 27.1169 32.9768C27.3662 32.9768 27.6156 32.7275 27.6156 32.4781V28.6755C27.6156 28.4262 27.3662 28.1768 27.1169 28.1768ZM7.35582 22.5665C7.10647 22.5665 6.85712 22.8158 6.85712 23.0652V32.4781C6.85712 32.7898 7.10647 33.0392 7.35582 33.0392C7.60517 33.0392 7.85452 32.7898 7.85452 32.5405V23.0652C7.85452 22.8158 7.60517 22.5665 7.35582 22.5665ZM11.4701 22.4418C11.2208 22.4418 10.9714 22.6911 10.9714 22.9405V32.4158C10.9714 32.7275 11.2208 32.9145 11.4701 32.9145C11.7195 32.9145 11.9688 32.6652 11.9688 32.4158V22.9405C11.9688 22.6911 11.7818 22.4418 11.4701 22.4418ZM15.2727 22.5665C15.0234 22.5665 14.774 22.8158 14.774 23.0652V32.4781C14.774 32.7898 15.0234 32.9768 15.2727 32.9768C15.5221 32.9768 15.7714 32.7275 15.7714 32.4781V23.0652C15.7714 22.8158 15.5221 22.5665 15.2727 22.5665ZM32.2909 15.0859C32.0415 15.0859 31.7922 15.3353 31.7922 15.5846V24.9976C31.7922 25.3093 32.0415 25.4963 32.2909 25.4963C32.5402 25.4963 32.7896 25.247 32.7896 24.9976V15.5846C32.7896 15.3353 32.5402 15.0859 32.2909 15.0859ZM36.2182 15.0859C35.9688 15.0859 35.7195 15.3353 35.7195 15.5846V24.9976C35.7195 25.3093 35.9688 25.4963 36.2182 25.4963C36.4675 25.4963 36.7169 25.247 36.7169 24.9976V15.5846C36.7169 15.3353 36.5298 15.0859 36.2182 15.0859ZM40.2078 15.0859C39.9584 15.0859 39.7091 15.3353 39.7091 15.5846V24.9976C39.7091 25.3093 39.9584 25.4963 40.2078 25.4963C40.4571 25.4963 40.7065 25.247 40.7065 24.9976V15.5846C40.7065 15.3353 40.4571 15.0859 40.2078 15.0859Z" fill="white"/>
</svg>
