<svg width="82" height="62" viewBox="0 0 82 62" fill="none" xmlns="http://www.w3.org/2000/svg">
<path d="M81 25.5356L47.1687 2L13.3373 25.5356M17.7494 22.5933V31.9032M77.1235 22.8416V60.9002M46.3142 59.994H61.7188V48.214H46.3142V59.994ZM61.7188 59.994H77.1235V48.214H61.7188V59.994ZM61.7188 48.214H77.1235V36.4339H61.7188V48.214ZM46.3142 48.214H61.7188V36.4339H46.3142V48.214Z" stroke="#1F4899" stroke-width="2"/>
<path fill-rule="evenodd" clip-rule="evenodd" d="M53.5634 36.4338H68.9681V24.6538H53.5634V36.4338ZM24.5664 58.1816H39.9711V46.4016H24.5664V58.1816Z" stroke="#1F4899" stroke-width="2"/>
<path d="M42.6895 58.1817H24.5664V35.5278H21.8479" stroke="#1F4899" stroke-width="2"/>
<path d="M1.68234 51.9045V49.1751C1.68234 48.4513 1.96989 47.7571 2.48174 47.2452C2.99359 46.7334 3.68781 46.4458 4.41168 46.4458H9.99451L12.6006 49.8575H24.2012V57.3641H20.7895M7.82336 56.6817C7.82342 57.1298 7.73523 57.5734 7.56383 57.9874C7.39243 58.4013 7.14118 58.7774 6.82442 59.0943C6.50766 59.4111 6.13159 59.6625 5.71769 59.834C5.30379 60.0055 4.86016 60.0938 4.41213 60.0939C3.9641 60.0939 3.52045 60.0057 3.1065 59.8343C2.69256 59.6629 2.31642 59.4117 1.99958 59.0949C1.68273 58.7782 1.43138 58.4021 1.25987 57.9882C1.08836 57.5743 1.00006 57.1307 1 56.6826C0.999941 56.2346 1.08813 55.791 1.25953 55.377C1.43092 54.9631 1.68218 54.5869 1.99894 54.2701C2.3157 53.9532 2.69177 53.7019 3.10567 53.5304C3.51957 53.3589 3.9632 53.2706 4.41123 53.2705C4.85925 53.2705 5.30291 53.3586 5.71685 53.53C6.1308 53.7014 6.50693 53.9527 6.82378 54.2695C7.14062 54.5862 7.39198 54.9623 7.56348 55.3762C7.73499 55.7901 7.8233 56.2337 7.82336 56.6817Z" stroke="#1F4899" stroke-width="2"/>
<path d="M21.4719 49.8577C21.4719 49.8577 20.447 41.4349 14.6476 37.5747H7.14193V46.446M13.9653 57.3652H7.82336M7.14102 37.5747H5.09583M20.7886 56.681C20.7598 57.5666 20.3877 58.4063 19.751 59.0225C19.1144 59.6387 18.263 59.9833 17.377 59.9833C16.4909 59.9833 15.6396 59.6387 15.0029 59.0225C14.3662 58.4063 13.9942 57.5666 13.9653 56.681C13.9858 55.7898 14.3543 54.942 14.9919 54.3189C15.6294 53.6959 16.4855 53.3471 17.377 53.3471C18.2684 53.3471 19.1245 53.6959 19.7621 54.3189C20.3996 54.942 20.7681 55.7898 20.7886 56.681V56.681Z" stroke="#1F4899" stroke-width="2"/>
</svg>
