<svg width="70" height="72" viewBox="0 0 70 72" fill="none" xmlns="http://www.w3.org/2000/svg">
<path fill-rule="evenodd" clip-rule="evenodd" d="M0.5 33.5V71.5H69.5V33.5H0.5ZM67.5 35.5H2.5V69.5H10.0714V43.5H12.0714V69.5H19.6428V43.5H21.6428V69.5H29.2143V43.5H31.2143V69.5H38.7857V43.5H40.7857V69.5H48.3571V43.5H50.3571V69.5H57.9286V43.5H59.9286V69.5H67.5V35.5Z" fill="#1F4899"/>
<path d="M40.5 0.5H29.5V2.5H34V10.1201H35.9974C36.4325 10.232 36.8481 10.4168 37.2256 10.6691C37.8844 11.1093 38.3979 11.7349 38.7011 12.467C39.0043 13.199 39.0836 14.0044 38.9291 14.7815C38.7745 15.5586 38.393 16.2724 37.8327 16.8327C37.2724 17.393 36.5586 17.7745 35.7815 17.9291C35.0044 18.0836 34.199 18.0043 33.467 17.7011C32.7349 17.3979 32.1093 16.8844 31.6691 16.2256C31.2289 15.5668 30.994 14.7923 30.994 14H29C29 15.1867 29.3519 16.3467 30.0112 17.3334C30.6705 18.3201 31.6075 19.0892 32.7039 19.5433C32.7731 19.5719 32.8428 19.5993 32.9128 19.6253L10.47 33.6521L11.53 35.348L35 20.6793L58.47 35.348L59.53 33.6521L37.0871 19.6253C37.8933 19.3262 38.6294 18.8559 39.2426 18.2426C40.0818 17.4035 40.6532 16.3344 40.8847 15.1705C41.1162 14.0067 40.9974 12.8003 40.5433 11.7039C40.0892 10.6075 39.3201 9.67047 38.3334 9.01118C37.6266 8.5389 36.8308 8.22435 36 8.08392V2.5H40.5V0.5Z" fill="#1F4899"/>
</svg>
