<svg width="36" height="36" viewBox="0 0 36 36" fill="none" xmlns="http://www.w3.org/2000/svg">
<path fill-rule="evenodd" clip-rule="evenodd" d="M2.47501 16.875V33.975H33.525V16.875H2.47501ZM32.625 17.775H3.37501V33.075H6.78214V21.375H7.68214V33.075H11.0893V21.375H11.9893V33.075H15.3964V21.375H16.2964V33.075H19.7036V21.375H20.6036V33.075H24.0107V21.375H24.9107V33.075H28.3179V21.375H29.2179V33.075H32.625V17.775Z" fill="white"/>
<path d="M20.475 2.02502H15.525V2.92502H17.55V6.35408H18.4488C18.6447 6.40442 18.8316 6.4876 19.0015 6.60112C19.298 6.79921 19.5291 7.08075 19.6655 7.41015C19.8019 7.73956 19.8376 8.10202 19.7681 8.45172C19.6985 8.80141 19.5268 9.12262 19.2747 9.37474C19.0226 9.62685 18.7014 9.79854 18.3517 9.8681C18.002 9.93766 17.6395 9.90196 17.3101 9.76552C16.9807 9.62907 16.6992 9.39802 16.5011 9.10156C16.303 8.8051 16.1973 8.45657 16.1973 8.10002H15.3C15.3 8.63403 15.4584 9.15605 15.755 9.60006C16.0517 10.0441 16.4734 10.3901 16.9668 10.5945C16.9979 10.6074 17.0292 10.6197 17.0608 10.6314L6.96149 16.9434L7.43849 17.7066L18 11.1057L28.5615 17.7066L29.0385 16.9434L18.9392 10.6314C19.302 10.4968 19.6332 10.2852 19.9092 10.0092C20.2868 9.63161 20.5439 9.15052 20.6481 8.62677C20.7523 8.10302 20.6988 7.56014 20.4945 7.06678C20.2901 6.57342 19.9441 6.15174 19.5 5.85506C19.182 5.64253 18.8239 5.50098 18.45 5.43779V2.92502H20.475V2.02502Z" fill="white"/>
</svg>
