<svg width="67" height="72" viewBox="0 0 67 72" fill="none" xmlns="http://www.w3.org/2000/svg">
<path d="M42.0553 9.24918C39.9077 11.3564 37.5555 13.4994 37.0251 13.7148C36.8699 13.7776 36.493 13.8773 35.7059 13.8494C35.0566 13.8293 34.4194 14.028 33.8967 14.4138C33.374 14.7996 32.9963 15.3499 32.8242 15.9764C32.4267 17.423 32.1467 18.0082 32.0147 18.2271C31.864 18.4784 31.3488 18.613 30.8929 18.7297C30.2001 18.9101 29.0388 19.2116 29.0388 20.3953C29.0388 20.5273 29.0182 20.6888 28.9967 20.871C28.8997 21.7002 28.7544 22.9557 29.6338 23.9447C30.3572 24.756 31.5741 25.1509 33.3528 25.1509C35.6269 25.1509 36.6042 22.0457 38.7949 21.6419C40.9756 21.238 42.416 18.6624 43.2821 18.9496C45.251 19.5975 53.8503 18.6328 55.8462 17.1547M65.718 37.0697C62.0008 45.0731 55.8462 42.4543 49.5641 45.1466C48.7762 45.4841 40.4821 50.6793 40.5898 51.4287C40.6589 51.9079 36.0873 58.4305 37 59.5056C37.5627 60.167 48.9521 56.6527 47.9819 58.1119C47.1653 59.3387 47.1832 60.4408 47.3439 61.1479C47.5682 62.1423 48.1749 62.8899 48.6748 63.1896C48.9619 63.3628 50.1771 64.2988 51.2325 65.1263M4.69139 27.1979C5.58883 27.1979 15.055 26.13 16.3581 27.1979C17.0922 27.7992 17.6019 40.768 17.4852 41.4833C17.0814 41.8539 15.4283 42.6437 14.3155 43.175C13.2045 43.7063 12.1545 44.207 11.4949 44.627C10.9654 44.9636 10.6216 45.5927 10.4709 46.5C10.0536 49.0065 11.1161 53.4102 12.1841 54.7447C12.9999 55.7651 15.3386 56.5917 18.8126 57.735C20.3247 58.2331 21.7535 58.7042 22.414 59.0605C23.3679 59.5729 25.8153 62.1764 27.6012 64.0772C30.4173 67.071 30.6345 69.7364 30.7179 70.2749M6.70703 23.6082C3.9315 28.4005 2.4729 33.8417 2.47921 39.3797C2.47921 56.8151 16.6641 71 34.0986 71C46.9283 71 58.7871 62.8943 63.5094 50.9845C64.9691 47.29 65.7182 43.353 65.7171 39.3806C65.7069 32.5499 63.4875 25.9057 59.3901 20.4402C53.5021 12.6065 44.2315 7.76123 34.0986 7.76123C27.3976 7.76552 20.8714 9.89874 15.4615 13.853" stroke="#1F4899" stroke-width="2"/>
<path d="M11.8718 26.1282V8.17949H2L4.69231 11.7692L2 15.359H10.9744M45.077 48.5641V30.6154H35.2052L37.8975 34.2052L35.2052 37.7949H44.1795M45.9744 18.9487V1H55.8462L53.1539 4.58975L55.8462 8.17949H46.8718" stroke="#1F4899" stroke-width="2"/>
</svg>
