<svg width="36" height="36" viewBox="0 0 36 36" fill="none" xmlns="http://www.w3.org/2000/svg">
<path fill-rule="evenodd" clip-rule="evenodd" d="M0 14.85H2.25V15.75H0.9V29.7H28.9935V28.35H29.8935V30.6H0V14.85Z" fill="white"/>
<path fill-rule="evenodd" clip-rule="evenodd" d="M21.2794 10.35H3.14999V27.45H34.2042L34.2 27.4444V19.35H33.3V26.2537L29.8929 21.7459V19.35H28.9929V20.5552L21.2794 10.35ZM32.3958 26.55H29.8929V23.2385L32.3958 26.55ZM28.9929 26.55V22.0477L20.8315 11.25H4.04999V26.55H7.45713V14.85H8.35713V26.55H11.7643V14.85H12.6643V26.55H16.0714V14.85H16.9714V26.55H20.3786V14.85H21.2786V26.55H24.6857V19.35H25.5857V26.55H28.9929Z" fill="white"/>
<path d="M31.05 8.10002V11.7H27.9V10.8H30.15V8.10002H31.05ZM34.83 12.3287L35.6396 12.7364C35.7754 12.3836 35.874 12.0132 35.9329 11.6294L35.0338 11.5578C34.9888 11.8233 34.92 12.0807 34.83 12.3287ZM32.8531 15.7041L32.5521 14.8496C32.7991 14.7303 33.0327 14.5899 33.2518 14.4297L33.8877 15.0791C33.5691 15.3243 33.2226 15.5345 32.8531 15.7041ZM35.2467 13.5464C35.0487 13.8798 34.8165 14.1899 34.5541 14.4725L33.9223 13.8276C34.1163 13.6157 34.2886 13.3857 34.4394 13.14L35.2467 13.5464ZM30.6018 5.40002C31.8573 5.40002 33.0088 5.83382 33.925 6.55292L34.9074 5.57057L35.5176 8.72642L32.3608 8.11712L33.2833 7.19507C32.5336 6.63482 31.6075 6.30002 30.6018 6.30002C28.1196 6.30002 26.1004 8.31872 26.1004 10.8C26.1004 13.2813 28.1196 15.3 30.6018 15.3C30.9834 15.3 31.3524 15.2469 31.7065 15.1574L32.0058 16.0097C31.5576 16.1298 31.0882 16.2 30.6018 16.2C27.6187 16.2 25.2 13.7822 25.2 10.8C25.2 7.81787 27.6187 5.40002 30.6018 5.40002ZM36 10.7321L35.0932 10.6596C35.0811 10.3433 35.037 10.0359 34.9636 9.73847H35.8978C35.9618 10.0598 35.9955 10.3923 36 10.7321Z" fill="white"/>
</svg>
