<svg width="81" height="82" viewBox="0 0 81 82" fill="none" xmlns="http://www.w3.org/2000/svg">
<path fill-rule="evenodd" clip-rule="evenodd" d="M66.413 77.0592L54.6991 57.7282C54.6827 57.7025 53.0254 55.121 53.0254 51.238C53.0254 43.8399 59.0448 37.8215 66.4418 37.8215C73.8389 37.8215 79.8603 43.8389 79.8603 51.238C79.8641 53.5289 79.2664 55.7808 78.127 57.7683L66.413 77.0592Z" stroke="#09388A" stroke-width="2"/>
<path fill-rule="evenodd" clip-rule="evenodd" d="M66.4434 57.7695C64.7303 57.7679 63.0879 57.0866 61.8766 55.8751C60.6654 54.6637 59.9843 53.0211 59.983 51.308C59.9846 49.5951 60.6658 47.9528 61.877 46.7416C63.0882 45.5304 64.7305 44.8492 66.4434 44.8476C68.1562 44.8495 69.7982 45.5308 71.0092 46.742C72.2202 47.9532 72.9012 49.5953 72.9028 51.308C72.9028 54.8714 69.9214 57.7685 66.4434 57.7685V57.7695ZM11.106 30.6241L2.26351 16.0295C2.25117 16.011 1 14.0607 1 11.1286C1 5.54411 5.54411 1 11.1286 1C16.7142 0.998972 21.2593 5.54308 21.2593 11.1286C21.2626 12.8585 20.8113 14.5588 19.9506 16.0593L11.106 30.6241Z" stroke="#09388A" stroke-width="2"/>
<path fill-rule="evenodd" clip-rule="evenodd" d="M11.1302 16.0602C9.83664 16.0588 8.59648 15.5443 7.6819 14.6295C6.76731 13.7147 6.25304 12.4745 6.25195 11.1809C6.25359 9.88773 6.7681 8.64798 7.68262 7.73365C8.59714 6.81932 9.837 6.30507 11.1302 6.30371C12.4232 6.30534 13.6628 6.81971 14.5771 7.73402C15.4914 8.64832 16.0058 9.8879 16.0074 11.1809C16.0074 13.8714 13.7559 16.0592 11.1302 16.0592V16.0602Z" stroke="#09388A" stroke-width="2"/>
<path d="M10.9785 34.7363H36.6805C38.8618 34.7363 40.9538 35.6028 42.4962 37.1453C44.0386 38.6877 44.9051 40.7797 44.9051 42.961C44.9051 45.1423 44.0386 47.2342 42.4962 48.7767C40.9538 50.3191 38.8618 51.1856 36.6805 51.1856H25.8857C17.6528 51.1856 10.9785 57.8599 10.9785 66.0927C10.9785 74.3256 17.6528 80.9999 25.8857 80.9999H66.4948" stroke="#09388A" stroke-width="2"/>
</svg>
