<svg width="16" height="16" viewBox="0 0 16 16" fill="#fff" xmlns="http://www.w3.org/2000/svg">
<path d="M5.15625 0.78125C5.03125 0.46875 4.83333 0.25 4.5625 0.125C4.27083 0 3.96875 -0.03125 3.65625 0.03125L0.90625 0.78125C0.34375 0.989583 0.0416667 1.39583 0 2C0.0208333 4.60417 0.65625 6.95833 1.90625 9.0625C3.15625 11.1667 4.83333 12.8438 6.9375 14.0938C9.04167 15.3438 11.3958 15.9792 14 16C14.6042 15.9583 15.0104 15.6563 15.2188 15.0938L15.9688 12.3438C16.0313 12.0313 16 11.7292 15.875 11.4375C15.75 11.1667 15.5313 10.9688 15.2188 10.8438L12.2188 9.59375C11.6563 9.40625 11.1771 9.53125 10.7813 9.96875L9.53125 11.5C8.42708 10.9792 7.4375 10.2917 6.5625 9.4375C5.70833 8.5625 5.02083 7.57292 4.5 6.46875L6.03125 5.21875C6.46875 4.82292 6.59375 4.34375 6.40625 3.78125L5.15625 0.78125Z" />
</svg>
