<svg width="48" height="48" viewBox="0 0 48 48" fill="none" xmlns="http://www.w3.org/2000/svg">
<path d="M44.3845 21.5065L39.9585 17.2675V12.0311C39.9585 10.2233 38.4624 8.72724 36.6546 8.72724H31.1065L27.865 5.61035C27.6156 5.361 27.1793 5.361 26.9299 5.61035L23.6884 8.72724H15.3975C13.5897 8.72724 12.0936 10.2233 12.0936 12.0311V14.7117C12.0936 15.0857 12.4052 15.3974 12.7793 15.3974H14.7741V17.2675L10.2858 21.5065C10.1611 21.6311 10.0988 21.8181 10.0988 22.0052V41.8909C10.0988 42.2649 10.4104 42.5766 10.7845 42.5766H43.9481C44.3221 42.5766 44.6338 42.2649 44.6338 41.8909V22.0052C44.5715 21.8181 44.5091 21.6311 44.3845 21.5065ZM39.8962 19.1376L42.2027 21.3818H39.8962V19.1376ZM39.8962 22.6909H41.8286L39.8962 24.0623V22.6909ZM34.5975 14.7117V12.0311C34.5975 10.9091 35.4702 10.0363 36.5923 10.0363C37.7143 10.0363 38.5871 10.9091 38.5871 12.0311V24.9974L27.3039 33.1013L16.0208 24.9974V15.3974H33.9741C34.3481 15.3974 34.5975 15.0857 34.5975 14.7117ZM27.3039 6.98178L29.1117 8.72724H25.4962L27.3039 6.98178ZM13.4027 14.0259V12.0311C13.4027 10.9091 14.2754 10.0363 15.3975 10.0363H33.9741C33.5377 10.5974 33.2884 11.2831 33.2884 12.0311V14.0259H13.4027ZM14.7117 19.1376V21.3818H12.4052L14.7117 19.1376ZM14.7117 22.6909V24.0623L12.7793 22.6909H14.7117ZM11.4078 23.3142L24.2494 32.5402L11.4078 40.7065V23.3142ZM13.0286 41.2675L25.3715 33.3506L26.9299 34.4727C27.1793 34.6597 27.491 34.6597 27.678 34.4727L29.2364 33.3506L41.6416 41.2052H13.0286V41.2675ZM43.2624 40.7065L30.4208 32.5402L43.2624 23.3142V40.7065Z" fill="white"/>
<path d="M20.0104 21.3194H33.2883V22.6285H20.0104V21.3194ZM20.0104 18.7012H33.2883V20.0103H20.0104V18.7012ZM20.0104 23.9999H33.2883V25.309H20.0104V23.9999ZM3.42859 14.0259H10.0364V15.335H3.42859V14.0259ZM5.42339 16.7064H12.7169V18.0155H5.42339V16.7064Z" fill="white"/>
</svg>
