<svg width="16" height="17" viewBox="0 0 16 17" fill="none" xmlns="http://www.w3.org/2000/svg">
<path d="M5.15625 1.28125C5.03125 0.96875 4.83333 0.75 4.5625 0.625C4.27083 0.5 3.96875 0.46875 3.65625 0.53125L0.90625 1.28125C0.34375 1.48958 0.0416667 1.89583 0 2.5C0.0208333 5.10417 0.65625 7.45833 1.90625 9.5625C3.15625 11.6667 4.83333 13.3438 6.9375 14.5938C9.04167 15.8438 11.3958 16.4792 14 16.5C14.6042 16.4583 15.0104 16.1563 15.2188 15.5938L15.9688 12.8438C16.0312 12.5313 16 12.2292 15.875 11.9375C15.75 11.6667 15.5313 11.4688 15.2188 11.3438L12.2188 10.0938C11.6563 9.90625 11.1771 10.0313 10.7813 10.4688L9.53125 12C8.42708 11.4792 7.4375 10.7917 6.5625 9.9375C5.70833 9.0625 5.02083 8.07292 4.5 6.96875L6.03125 5.71875C6.46875 5.32292 6.59375 4.84375 6.40625 4.28125L5.15625 1.28125Z" fill="#1F4899"/>
</svg>
