<svg width="80" height="80" viewBox="0 0 80 80" fill="none" xmlns="http://www.w3.org/2000/svg">
<path fill-rule="evenodd" clip-rule="evenodd" d="M0 33H5V35H2V66H64.43V63H66.43V68H0V33Z" fill="white"/>
<path fill-rule="evenodd" clip-rule="evenodd" d="M47.2877 23H6.99998V61H76.0093L76 60.9876V43H74V58.3416L66.4286 48.3243V43H64.4286V45.6782L47.2877 23ZM71.9906 59H66.4286V51.6411L71.9906 59ZM64.4286 59V48.9951L46.2923 25H8.99998V59H16.5714V33H18.5714V59H26.1428V33H28.1428V59H35.7142V33H37.7142V59H45.2857V33H47.2857V59H54.8572V43H56.8572V59H64.4286Z" fill="white"/>
<path d="M69 18V26H62V24H67V18H69ZM77.4 27.397L79.199 28.303C79.501 27.519 79.72 26.696 79.851 25.843L77.853 25.684C77.753 26.274 77.6 26.846 77.4 27.397ZM73.007 34.898L72.338 32.999C72.887 32.734 73.406 32.422 73.893 32.066L75.306 33.509C74.598 34.054 73.828 34.521 73.007 34.898ZM78.326 30.103C77.886 30.844 77.37 31.533 76.787 32.161L75.383 30.728C75.814 30.257 76.197 29.746 76.532 29.2L78.326 30.103ZM68.004 12C70.794 12 73.353 12.964 75.389 14.562L77.572 12.379L78.928 19.392L71.913 18.038L73.963 15.989C72.297 14.744 70.239 14 68.004 14C62.488 14 58.001 18.486 58.001 24C58.001 29.514 62.488 34 68.004 34C68.852 34 69.672 33.882 70.459 33.683L71.124 35.577C70.128 35.844 69.085 36 68.004 36C61.375 36 56 30.627 56 24C56 17.373 61.375 12 68.004 12ZM80 23.849L77.985 23.688C77.958 22.985 77.86 22.302 77.697 21.641H79.773C79.915 22.355 79.99 23.094 80 23.849Z" fill="white"/>
</svg>
