<svg width="80" height="80" viewBox="0 0 80 80" fill="none" xmlns="http://www.w3.org/2000/svg">
<path d="M50.7363 42.7128C64.1097 42.7128 74.9505 37.8945 74.9505 31.951C74.9505 26.0074 64.1097 21.1892 50.7363 21.1892C37.3634 21.1892 26.5225 26.0074 26.5225 31.951C26.5225 37.8945 37.3634 42.7128 50.7363 42.7128Z" stroke="#1F4899" stroke-width="2" stroke-linecap="round" stroke-linejoin="round"/>
<path d="M26.5225 31.9531V64.2386C26.5225 70.1573 37.2842 75.0003 50.7363 75.0003C64.1888 75.0003 74.9505 70.1573 74.9505 64.2386V31.9531" stroke="#1F4899" stroke-width="2" stroke-linecap="round" stroke-linejoin="round"/>
<path d="M74.9505 48.0913C74.9505 54.0102 64.1888 58.8532 50.7363 58.8532C37.2842 58.8532 26.5225 54.0102 26.5225 48.0913" stroke="#1F4899" stroke-width="2" stroke-linecap="round" stroke-linejoin="round"/>
<path d="M50.1995 10.4281C43.9118 6.54782 36.593 4.67118 29.214 5.04723C15.8156 5.04723 5 9.89004 5 15.809C5 18.9837 8.12093 21.8356 13.0713 23.8803" stroke="#1F4899" stroke-width="2" stroke-linecap="round" stroke-linejoin="round"/>
<path d="M13.0713 56.1662C8.12093 54.1219 5 51.2696 5 48.0951V15.8098" stroke="#1F4899" stroke-width="2" stroke-linecap="round" stroke-linejoin="round"/>
<path d="M13.0713 40.0245C8.12093 37.9797 5 35.1279 5 31.9531" stroke="#1F4899" stroke-width="2" stroke-linecap="round" stroke-linejoin="round"/>
</svg>
