<svg width="48" height="48" viewBox="0 0 48 48" fill="none" xmlns="http://www.w3.org/2000/svg">
<path d="M14.9611 11.0959C14.9611 8.97641 13.2156 7.23096 11.0961 7.23096C8.97666 7.23096 7.2312 8.97641 7.2312 11.0959C7.2312 13.2154 8.97666 14.9608 11.0961 14.9608C13.278 14.9608 14.9611 13.2777 14.9611 11.0959ZM8.54029 11.0959C8.54029 9.66213 9.72471 8.54005 11.0961 8.54005C12.5299 8.54005 13.652 9.72446 13.652 11.0959C13.652 12.5297 12.4676 13.6517 11.0961 13.6517C10.4104 13.6517 9.78705 13.4024 9.28834 12.9037C8.78964 12.4673 8.54029 11.7816 8.54029 11.0959Z" fill="white"/>
<path d="M36.9039 22.6909C33.413 22.6286 30.5455 25.4338 30.4831 28.9247C30.4831 31.6675 32.2909 34.9091 33.9117 37.2156C32.1663 37.652 30.9818 38.4623 30.6078 39.4598H10.4728C7.97925 39.4598 5.98444 37.4649 5.98444 34.9714C5.98444 32.4779 7.97925 30.4831 10.4728 30.4831H23.3767C25.8702 30.4831 27.865 28.4883 27.865 25.9948C27.865 23.5013 25.8702 21.4442 23.3767 21.4442H17.4546C17.0805 20.4468 15.8961 19.6364 14.1507 19.2C15.7715 16.8312 17.5793 13.652 17.5793 10.9091C17.5169 7.41819 14.587 4.613 11.0961 4.67534C7.60522 4.613 4.73769 7.41819 4.67535 10.9091C4.67535 13.652 6.48315 16.8935 8.10393 19.2C5.98444 19.761 4.67535 20.8208 4.67535 22.0675C4.67535 23.8753 7.41821 25.3091 11.0961 25.3091C14.3377 25.3091 16.8312 24.2494 17.3922 22.7533H23.3767C25.1844 22.7533 26.6182 24.187 26.6182 25.9948C26.6182 27.8026 25.1844 29.2364 23.3767 29.2364H10.4728C7.29354 29.2364 4.67535 31.8546 4.67535 35.0338C4.67535 38.213 7.29354 40.8312 10.4728 40.8312H30.5455C31.1065 42.3273 33.6624 43.387 36.8416 43.387C40.5195 43.387 43.2624 42.0156 43.2624 40.1455C43.2624 38.8987 41.9533 37.839 39.8338 37.2779C41.4546 34.9091 43.2624 31.7299 43.2624 28.987C43.2624 25.4338 40.3948 22.6286 36.9039 22.6909ZM5.98444 10.9091C6.04678 8.10391 8.35328 5.92209 11.1585 5.98443C13.9637 5.92209 16.2702 8.16624 16.3325 10.9091C16.3325 14.5247 12.5299 19.4494 11.1585 21.0701C9.7247 19.4494 5.98444 14.5247 5.98444 10.9091ZM11.0961 24C7.97925 24 5.92211 22.8779 5.92211 22.0675C5.92211 21.5065 6.98185 20.6961 8.85198 20.3221C9.16367 20.7585 9.41302 21.0701 9.66237 21.3818H9.16367C8.78964 21.3818 8.54029 21.6935 8.54029 22.0052C8.54029 22.3169 8.85198 22.6286 9.16367 22.6286H13.0286C13.4026 22.6286 13.652 22.3169 13.652 22.0052C13.652 21.6935 13.3403 21.3818 13.0286 21.3818H12.4676C12.7169 21.0701 12.9663 20.6961 13.278 20.3221C15.2104 20.6961 16.2078 21.4442 16.2078 22.0675C16.2702 22.8779 14.2754 24 11.0961 24ZM42.0156 40.0831C42.0156 40.8935 40.0208 42.0156 36.8416 42.0156C33.6624 42.0156 31.6676 40.8935 31.6676 40.0831C31.6676 39.5221 32.7273 38.7117 34.5974 38.3377C34.9091 38.774 35.1585 39.0857 35.4078 39.3974H34.8468C34.4728 39.3974 34.2234 39.7091 34.2234 40.0208C34.2234 40.3948 34.5351 40.6442 34.8468 40.6442H38.7117C39.0857 40.6442 39.3351 40.3325 39.3351 40.0208C39.3351 39.6468 39.0234 39.3974 38.7117 39.3974H38.1507C38.4 39.0857 38.6494 38.7117 38.9611 38.3377C41.0182 38.774 42.0156 39.5221 42.0156 40.0831ZM36.9039 39.0857C35.5325 37.4649 31.7299 32.5403 31.7299 28.9247C31.8546 26.1818 34.0987 24 36.9039 24C39.7091 24 41.9533 26.1818 42.0779 28.9247C42.0156 32.6026 38.213 37.4649 36.9039 39.0857Z" fill="white"/>
<path d="M36.9039 25.3091C34.7845 25.3091 33.039 27.0545 33.039 29.174C33.039 31.2935 34.7845 33.039 36.9039 33.039C39.0234 33.039 40.7689 31.2935 40.7689 29.174C40.7689 26.9922 39.0234 25.3091 36.9039 25.3091ZM36.9039 31.7299C35.4702 31.7299 34.3481 30.5454 34.3481 29.174C34.3481 27.7403 35.5325 26.6182 36.9039 26.6182C38.3377 26.6182 39.4598 27.8026 39.4598 29.174C39.4598 30.5454 38.2754 31.7299 36.9039 31.7299Z" fill="white"/>
</svg>
