<svg width="36" height="36" viewBox="0 0 36 36" fill="none" xmlns="http://www.w3.org/2000/svg">
<path fill-rule="evenodd" clip-rule="evenodd" d="M0 14.85H2.25V15.75H0.9V29.7H28.9935V28.35H29.8935V30.6H0V14.85Z" fill="white"/>
<path fill-rule="evenodd" clip-rule="evenodd" d="M21.2794 10.35H3.14999V27.45H34.2042L34.2 27.4444V19.35H33.3V26.2537L29.8929 21.7459V19.35H28.9929V20.5552L21.2794 10.35ZM32.3958 26.55H29.8929V23.2385L32.3958 26.55ZM28.9929 26.55V22.0477L20.8315 11.25H4.04999V26.55H7.45713V14.85H8.35713V26.55H11.7643V14.85H12.6643V26.55H16.0714V14.85H16.9714V26.55H20.3786V14.85H21.2786V26.55H24.6857V19.35H25.5857V26.55H28.9929Z" fill="white"/>
<path fill-rule="evenodd" clip-rule="evenodd" d="M29.5543 8.15875C30.2404 7.85382 31.1567 7.6767 32.1448 7.6767C33.1331 7.6767 34.0494 7.85382 34.7354 8.15875C35.0779 8.31096 35.3829 8.50386 35.6084 8.74079C35.8361 8.98005 36 9.28472 36 9.6401C36 9.99548 35.8361 10.3002 35.6084 10.5394C35.3829 10.7763 35.0779 10.9692 34.7355 11.1215C34.0494 11.4264 33.1331 11.6035 32.1448 11.6035C31.1567 11.6035 30.2404 11.4264 29.5543 11.1215C29.2118 10.9692 28.9068 10.7763 28.6813 10.5394C28.4536 10.3002 28.2897 9.99548 28.2897 9.6401C28.2897 9.28472 28.4536 8.98004 28.6813 8.74079C28.9068 8.50386 29.2118 8.31096 29.5543 8.15875ZM29.3333 9.36124C29.2163 9.48411 29.1897 9.57756 29.1897 9.6401C29.1897 9.70264 29.2163 9.79609 29.3333 9.91896C29.4524 10.0442 29.6461 10.1774 29.9198 10.299C30.4661 10.5418 31.2524 10.7035 32.1448 10.7035C33.0373 10.7035 33.8236 10.5418 34.3699 10.299C34.6437 10.1774 34.8373 10.0442 34.9565 9.91897C35.0734 9.7961 35.1 9.70264 35.1 9.6401C35.1 9.57756 35.0734 9.48411 34.9565 9.36124C34.8373 9.23605 34.6437 9.10284 34.3699 8.98118C33.8236 8.73836 33.0373 8.5767 32.1448 8.5767C31.2524 8.5767 30.4661 8.73836 29.9198 8.98118C29.6461 9.10284 29.4524 9.23605 29.3333 9.36124Z" fill="white"/>
<path fill-rule="evenodd" clip-rule="evenodd" d="M28.7397 9.19037C28.9882 9.19037 29.1897 9.39184 29.1897 9.64037V14.1806C29.1897 14.2428 29.2162 14.3361 29.3324 14.4587C29.4507 14.5836 29.6434 14.7167 29.9162 14.8385C30.4609 15.0815 31.2469 15.244 32.1448 15.244C33.0428 15.244 33.8289 15.0815 34.3735 14.8385C34.6464 14.7167 34.839 14.5836 34.9574 14.4587C35.0736 14.3361 35.1 14.2428 35.1 14.1806V9.64037C35.1 9.39184 35.3015 9.19037 35.55 9.19037C35.7986 9.19037 36 9.39184 36 9.64037V14.1806C36 14.5345 35.8373 14.8386 35.6106 15.0778C35.3861 15.3147 35.0822 15.5078 34.7402 15.6604C34.0552 15.966 33.1386 16.144 32.1448 16.144C31.1511 16.144 30.2345 15.966 29.5495 15.6604C29.2076 15.5078 28.9036 15.3147 28.6791 15.0778C28.4524 14.8386 28.2897 14.5345 28.2897 14.1806V9.64037C28.2897 9.39184 28.4912 9.19037 28.7397 9.19037Z" fill="white"/>
<path fill-rule="evenodd" clip-rule="evenodd" d="M28.7397 11.4599C28.9882 11.4599 29.1897 11.6614 29.1897 11.9099C29.1897 11.9721 29.2162 12.0654 29.3324 12.188C29.4507 12.3129 29.6434 12.446 29.9162 12.5678C30.4609 12.8108 31.2469 12.9733 32.1448 12.9733C33.0428 12.9733 33.8289 12.8108 34.3735 12.5678C34.6464 12.446 34.839 12.3129 34.9574 12.188C35.0736 12.0654 35.1 11.9721 35.1 11.9099C35.1 11.6614 35.3015 11.4599 35.55 11.4599C35.7986 11.4599 36 11.6614 36 11.9099C36 12.2638 35.8373 12.5679 35.6106 12.8071C35.3861 13.044 35.0822 13.2371 34.7402 13.3897C34.0552 13.6953 33.1386 13.8733 32.1448 13.8733C31.1511 13.8733 30.2345 13.6953 29.5495 13.3897C29.2076 13.2371 28.9036 13.044 28.6791 12.8071C28.4524 12.5679 28.2897 12.2638 28.2897 11.9099C28.2897 11.6614 28.4912 11.4599 28.7397 11.4599Z" fill="white"/>
<path fill-rule="evenodd" clip-rule="evenodd" d="M29.1068 5.40667C30.2317 5.35168 31.347 5.63883 32.3056 6.23042C32.5171 6.36094 32.5828 6.6382 32.4523 6.84969C32.3217 7.06119 32.0445 7.12684 31.833 6.99632C31.0264 6.49857 30.0876 6.25785 29.1411 6.30608C29.1334 6.30647 29.1258 6.30667 29.1182 6.30667C28.2242 6.30667 27.438 6.46912 26.8921 6.71229C26.6186 6.83413 26.4252 6.96744 26.3062 7.09255C26.1893 7.21545 26.163 7.30853 26.163 7.37007C26.163 7.43484 26.193 7.53772 26.3338 7.67514C26.476 7.81393 26.7041 7.9588 27.0198 8.0892C27.2495 8.18408 27.3588 8.44721 27.264 8.67691C27.1691 8.90662 26.906 9.01592 26.6763 8.92104C26.2958 8.7639 25.9564 8.56447 25.7052 8.31923C25.4525 8.07263 25.263 7.75175 25.263 7.37007C25.263 7.01543 25.4268 6.71124 25.654 6.47234C25.8791 6.23566 26.1836 6.04264 26.5259 5.89017C27.2089 5.5859 28.1209 5.40803 29.1068 5.40667Z" fill="white"/>
<path fill-rule="evenodd" clip-rule="evenodd" d="M25.713 6.92023C25.9615 6.92023 26.163 7.1217 26.163 7.37023V11.9104C26.163 11.9752 26.193 12.0781 26.3338 12.2155C26.476 12.3543 26.7041 12.4992 27.0198 12.6295C27.2495 12.7244 27.3588 12.9875 27.264 13.2172C27.1691 13.4469 26.906 13.5563 26.6763 13.4614C26.2958 13.3043 25.9564 13.1048 25.7052 12.8596C25.4525 12.613 25.263 12.2921 25.263 11.9104V7.37023C25.263 7.1217 25.4645 6.92023 25.713 6.92023Z" fill="white"/>
<path fill-rule="evenodd" clip-rule="evenodd" d="M25.713 9.19037C25.9615 9.19037 26.163 9.39184 26.163 9.64037C26.163 9.70514 26.193 9.80802 26.3338 9.94544C26.476 10.0842 26.7041 10.2291 27.0198 10.3595C27.2496 10.4544 27.3588 10.7175 27.264 10.9472C27.1691 11.1769 26.906 11.2862 26.6763 11.1913C26.2958 11.0342 25.9564 10.8348 25.7052 10.5895C25.4525 10.3429 25.263 10.0221 25.263 9.64037C25.263 9.39184 25.4645 9.19037 25.713 9.19037Z" fill="white"/>
</svg>
