<svg width="19" height="14" viewBox="0 0 19 14" fill="none" xmlns="http://www.w3.org/2000/svg">
<rect x="0.5" y="0.571411" width="18" height="12.8571" fill="white"/>
<mask id="mask0_277_15425" style="mask-type:alpha" maskUnits="userSpaceOnUse" x="0" y="0" width="19" height="14">
<rect x="0.5" y="0.571411" width="18" height="12.8571" fill="white"/>
</mask>
<g mask="url(#mask0_277_15425)">
<rect x="0.5" y="0.571411" width="18" height="12.8571" fill="#F1361D"/>
<path fill-rule="evenodd" clip-rule="evenodd" d="M6.97522 2.56472L7.59779 2.67086L8.06472 3.09611L8.17086 2.47354L8.59611 2.00661L7.97354 1.90047L7.50661 1.47522L7.40047 2.09779L6.97522 2.56472ZM8.64281 4.74226L9.1823 4.41392L9.81369 4.42852L9.48535 3.88903L9.49995 3.25764L8.96046 3.58598L8.32907 3.57138L8.65741 4.11087L8.64281 4.74226ZM7.91097 8.26694L7.38326 8.6139L7.37582 7.98239L7.02885 7.45469L7.66036 7.44725L8.18807 7.10028L8.19551 7.73179L8.54248 8.2595L7.91097 8.26694ZM8.36925 6.63444L8.99696 6.56487L9.56302 6.84494L9.49344 6.21723L9.77351 5.65117L9.1458 5.72075L8.57974 5.44068L8.64932 6.06839L8.36925 6.63444Z" fill="#FFDC42"/>
<path fill-rule="evenodd" clip-rule="evenodd" d="M4.78566 5.85993L3.27421 6.9374L3.83189 5.16697L2.34009 4.06246L4.1962 4.04574L4.78566 2.28564L5.37513 4.04574L7.23124 4.06246L5.73944 5.16697L6.29711 6.9374L4.78566 5.85993Z" fill="#FFDC42"/>
</g>
</svg>
