<svg width="16" height="16" viewBox="0 0 16 16" fill="none" xmlns="http://www.w3.org/2000/svg">
<path fill-rule="evenodd" clip-rule="evenodd" d="M13.1478 4.55116L12.8676 4.21142C11.7381 2.76225 9.97642 1.83002 7.99923 1.83002C4.59421 1.83002 1.83002 4.59493 1.83002 7.99923C1.83002 11.4051 4.59426 14.17 7.99923 14.17C11.2356 14.17 13.8941 11.6717 14.1489 8.50001C14.1878 8.02562 14.5827 7.65881 15.0605 7.65881C15.3935 7.65881 15.64 7.81641 15.7903 8.02263C15.9307 8.21526 15.9892 8.4517 15.9736 8.64781C15.6431 12.761 12.1964 16 7.99923 16C3.58376 16 0 12.4153 0 7.99923C0 3.58461 3.5838 0 7.99923 0C10.4816 0 12.7008 1.13314 14.1682 2.90826C14.2865 3.05143 14.4 3.19877 14.5083 3.35002L14.5098 2.02666C14.5098 1.70872 14.7673 1.45207 15.0844 1.45207C15.4016 1.45207 15.659 1.70949 15.659 2.02666V5.12864C15.659 5.44581 15.4016 5.70322 15.0844 5.70322H11.9947C11.6775 5.70322 11.4201 5.44581 11.4201 5.12864C11.4201 4.81147 11.6775 4.55406 11.9947 4.55406L13.1478 4.55116Z" fill="white"/>
</svg>
