<svg width="104" height="71" viewBox="0 0 104 71" fill="none" xmlns="http://www.w3.org/2000/svg">
<g clip-path="url(#clip0_37_475)">
<path fill-rule="evenodd" clip-rule="evenodd" d="M100.713 6.64158V10.2854C100.713 10.5306 100.78 10.7089 100.902 10.8092C101.025 10.9094 101.236 10.9763 101.526 10.9763H102.54L102.975 13.517C102.195 13.8401 101.114 14.0073 99.7433 14.0073C98.8295 14.0073 98.0941 13.7733 97.5481 13.3052C97.002 12.8372 96.7346 12.1909 96.7346 11.3552V6.64158H95.1188V4.34607L96.7123 4.26806V1.77197H100.713V4.25692H103.008V6.64158H100.713Z" fill="#1F4899"/>
<path fill-rule="evenodd" clip-rule="evenodd" d="M95.1523 2.66324H93.4808C93.1353 2.66324 92.8902 2.7301 92.7676 2.87496C92.645 3.01982 92.5782 3.27612 92.5782 3.64384V4.25672H94.8291V6.64138H92.5782V14.0405L92.0544 13.7396C91.134 11.8407 89.9608 10.0752 88.5666 8.49116V6.64138H86.9731V4.34587L88.5666 4.25672V3.09782C88.5666 1.03632 89.7366 0 92.0656 0C93.4919 0 94.6508 0.0891454 95.5311 0.267437L95.1523 2.66324Z" fill="#1F4899"/>
<path fill-rule="evenodd" clip-rule="evenodd" d="M8.10114 70.9937V69.8348C36.5387 36.3493 69.0993 31.8251 104.011 38.4665L85.7696 48.7406C50.5904 44.1161 27.9918 52.8302 8.10114 70.9937Z" fill="#262B33"/>
<path fill-rule="evenodd" clip-rule="evenodd" d="M45.8768 39.2019C45.5775 36.9076 45.4323 34.5957 45.4422 32.282C45.4422 11.2324 56.2511 2.23975 69.5896 2.23975C82.9281 2.23975 93.7371 11.2324 93.7371 32.282V32.4045C87.8338 31.6805 81.875 31.52 75.9413 31.9254L75.7518 23.0108C75.6515 18.8098 74.2252 14.7202 69.7456 14.8205C65.266 14.9208 63.7283 18.3306 63.6503 23.0108L63.4831 33.6414C57.4448 34.9078 51.5471 36.7704 45.8768 39.2019Z" fill="#1F4899"/>
<path fill-rule="evenodd" clip-rule="evenodd" d="M28.7719 8.53564L14.9654 3.54346L0 38.5779V49.8325H23.1445V54.2007C29.7191 48.3839 36.8619 43.4252 44.4616 39.4916L44.5842 37.9427H38.9568L38.8565 25.6294H25.1615L23.2448 37.9427H16.3472L28.7719 8.53564Z" fill="#1F4899"/>
<path d="M93.7816 51.4594L92.0544 56.7525C91.9931 56.9679 91.9109 57.1769 91.8093 57.3765C91.707 57.5958 91.5838 57.8048 91.4415 58.0005C91.304 58.2044 91.1347 58.385 90.9401 58.5354C90.7405 58.7018 90.5194 58.8405 90.2826 58.9477C90.0184 59.0628 89.7349 59.127 89.4469 59.1371C89.1034 59.1476 88.7597 59.1214 88.4217 59.0591L88.2657 57.8222C88.6194 57.7655 88.9617 57.6526 89.2797 57.4879C89.5255 57.3519 89.7297 57.1516 89.8703 56.9085H89.5026C89.3379 56.9206 89.1742 56.8734 89.0414 56.7753C88.9085 56.6771 88.8152 56.5346 88.7783 56.3736L87.1625 51.4594H89.5918L90.2381 54.4681C90.2715 54.6687 90.3161 55.003 90.3829 55.4933H90.4832C90.5278 55.315 90.6058 54.9807 90.7061 54.4681L91.3524 51.4594H93.7816ZM82.6941 51.4594L82.9058 52.2618C83.5967 51.6266 84.3433 51.3034 85.1456 51.3034C86.2265 51.3034 86.7614 51.816 86.7614 52.8301V56.9085H84.477V53.5655C84.4809 53.5189 84.475 53.4721 84.4596 53.4279C84.4442 53.3838 84.4198 53.3433 84.3879 53.3092C84.2946 53.2511 84.1855 53.2239 84.0758 53.2312C83.7737 53.2311 83.4732 53.2762 83.1844 53.3649V56.9085H80.9V51.4594H82.6941ZM76.4539 55.003V55.1813C76.4539 55.4042 76.5987 55.5156 76.9107 55.5156C77.2025 55.5002 77.4842 55.4037 77.7242 55.237V54.6687H76.8662C76.5876 54.6687 76.4539 54.7801 76.4539 55.003ZM74.7266 53.0306L74.5149 51.582C75.5402 51.3914 76.5811 51.2981 77.6239 51.3034C78.4374 51.3034 79.0279 51.4706 79.4291 51.8049C79.8303 52.1392 80.0086 52.7186 80.0086 53.5321V56.9085H78.1922L77.9916 56.1508C77.7697 56.441 77.4826 56.6749 77.1535 56.8336C76.8244 56.9924 76.4626 57.0715 76.0973 57.0645C75.6194 57.0823 75.1492 56.9413 74.7601 56.6633C74.4035 56.3959 74.2252 56.0059 74.2252 55.5156V54.9696C74.2159 54.7726 74.2546 54.5764 74.3381 54.3978C74.4216 54.2192 74.5473 54.0635 74.7044 53.9444C75.0275 53.6881 75.4621 53.5655 76.0193 53.5655H77.7242V53.5209C77.713 53.3204 77.6685 53.1866 77.5682 53.0975C77.4679 53.0084 77.3119 52.9749 77.0779 52.9749C76.2867 52.9749 75.4955 52.9972 74.7266 53.0306ZM69.9908 53.1755V55.4264C70.2202 55.5224 70.4664 55.5716 70.7151 55.5713C70.9602 55.5713 71.1162 55.4933 71.2054 55.3373C71.2945 55.1813 71.3391 54.8247 71.3391 54.2675C71.3391 53.7104 71.2945 53.3649 71.2054 53.2089C71.1162 53.0529 70.9714 52.9749 70.7485 52.9749C70.4836 52.9808 70.2239 53.0495 69.9908 53.1755ZM69.5339 51.4594L69.7233 52.206C69.9324 51.9276 70.2137 51.7118 70.5368 51.582C70.9115 51.413 71.318 51.3256 71.7291 51.3257C72.42 51.3257 72.9214 51.5709 73.2223 52.0723C73.5232 52.5738 73.6903 53.2869 73.6903 54.2453C73.6903 55.2036 73.5232 56.0616 73.2 56.4628C72.8769 56.8639 72.3531 57.0645 71.6288 57.0645C70.9045 57.0645 70.3696 56.9085 69.9573 56.6076C69.9908 57.1202 70.0019 57.5214 69.9908 57.7888V58.8697H67.7064V51.4594H69.5339ZM59.8504 51.4594L60.0398 52.2506C60.3045 51.9581 60.6173 51.7132 60.9647 51.5263C61.2853 51.3757 61.6358 51.2996 61.9899 51.3034C62.7254 51.3034 63.2045 51.5709 63.4051 52.1169C63.9511 51.5709 64.564 51.3034 65.2326 51.3034C66.2801 51.3034 66.8038 51.816 66.8038 52.8301V56.9085H64.5194V53.5655C64.5255 53.5197 64.5217 53.4731 64.5082 53.4289C64.4948 53.3847 64.472 53.3439 64.4414 53.3092C64.361 53.2504 64.2621 53.2227 64.1628 53.2312C63.9445 53.235 63.729 53.2804 63.5277 53.3649V56.9085H61.3325V53.5655C61.3325 53.3427 61.2099 53.2312 60.9536 53.2312C60.7439 53.2374 60.5367 53.2789 60.3407 53.3538V56.9085H58.0563V51.4594H59.8504ZM54.2676 52.8524C54.0002 52.8524 53.8219 52.9415 53.7328 53.1086C53.6436 53.2758 53.6102 53.6324 53.6102 54.2007C53.6102 54.769 53.6548 55.081 53.7328 55.2482C53.8108 55.4153 54.0002 55.4933 54.2676 55.4933C54.5351 55.4933 54.7022 55.4153 54.7802 55.2482C54.8582 55.081 54.9028 54.7356 54.9028 54.2007C54.9028 53.6658 54.8694 53.2758 54.7802 53.1086C54.6911 52.9415 54.5239 52.8524 54.2676 52.8524ZM54.2676 51.3034C55.3708 51.3034 56.162 51.5263 56.6189 51.9609C57.0757 52.3955 57.3097 53.1309 57.3097 54.2007C57.3097 55.2704 57.0757 55.9836 56.6189 56.407C56.162 56.8305 55.3708 57.0422 54.2676 57.0422C53.1645 57.0422 52.351 56.8305 51.8941 56.407C51.4372 55.9836 51.2144 55.237 51.2144 54.2007C51.2144 53.1644 51.4372 52.3843 51.8941 51.9609C52.351 51.5374 53.1422 51.3034 54.2676 51.3034ZM50.5792 55.159L50.7909 56.5853C50.2003 56.8862 49.4092 57.0422 48.4063 57.0422C47.4034 57.0422 46.5899 56.8305 46.1553 56.3959C45.7208 55.9613 45.509 55.2259 45.509 54.1784C45.509 53.1309 45.7319 52.3843 46.1665 51.9497C46.6011 51.5152 47.3588 51.3034 48.4286 51.3034C49.4983 51.3034 50.1558 51.4372 50.7129 51.7046L50.4789 53.1309H48.8186C48.4731 53.1309 48.228 53.1978 48.0943 53.3427C47.9605 53.4875 47.9048 53.755 47.9048 54.1784C47.9048 54.6018 47.9717 54.8804 48.0943 55.0141C48.2168 55.1479 48.4731 55.237 48.8186 55.237C49.5317 55.237 50.1223 55.2036 50.5792 55.159Z" fill="#1F4899"/>
</g>
<defs>
<clipPath id="clip0_37_475">
<rect width="104" height="70.9937" fill="white"/>
</clipPath>
</defs>
</svg>
