<svg width="60" height="69" viewBox="0 0 60 69" fill="none" xmlns="http://www.w3.org/2000/svg">
<rect width="60" height="60" fill="white"/>
<g clip-path="url(#clip0_259_6441)">
<path fill-rule="evenodd" clip-rule="evenodd" d="M46.3943 20.289V21.5153C46.3943 21.5978 46.4168 21.6578 46.458 21.6916C46.4993 21.7253 46.5705 21.7478 46.668 21.7478H47.0093L47.1556 22.6028C46.8931 22.7116 46.5293 22.7679 46.068 22.7679C45.7605 22.7679 45.513 22.6891 45.3292 22.5316C45.1455 22.3741 45.0555 22.1566 45.0555 21.8753V20.289H44.5117V19.5165L45.048 19.4902V18.6502H46.3943V19.4865H47.1668V20.289H46.3943Z" fill="#1F4899"/>
<path fill-rule="evenodd" clip-rule="evenodd" d="M44.5221 18.9502H43.9596C43.8434 18.9502 43.7609 18.9727 43.7196 19.0215C43.6783 19.0702 43.6558 19.1565 43.6558 19.2802V19.4865H44.4134V20.289H43.6558V22.7791L43.4796 22.6779C43.1698 22.0388 42.775 21.4447 42.3058 20.9116V20.289H41.7695V19.5165L42.3058 19.4865V19.0965C42.3058 18.4027 42.6996 18.054 43.4833 18.054C43.9634 18.054 44.3534 18.084 44.6496 18.144L44.5221 18.9502Z" fill="#1F4899"/>
<path fill-rule="evenodd" clip-rule="evenodd" d="M15.2266 41.9461V41.5561C24.7969 30.2869 35.7548 28.7644 47.504 30.9994L41.365 34.4571C29.5258 32.9008 21.9206 35.8334 15.2266 41.9461Z" fill="#262B33"/>
<path fill-rule="evenodd" clip-rule="evenodd" d="M27.9394 31.2469C27.8387 30.4748 27.7898 29.6968 27.7931 28.9181C27.7931 21.8341 31.4308 18.8077 35.9197 18.8077C40.4086 18.8077 44.0462 21.8341 44.0462 28.9181V28.9594C42.0595 28.7157 40.0542 28.6617 38.0572 28.7981L37.9935 25.798C37.9597 24.3842 37.4797 23.0079 35.9722 23.0416C34.4646 23.0754 33.9471 24.2229 33.9208 25.798L33.8646 29.3756C31.8325 29.8018 29.8477 30.4286 27.9394 31.2469Z" fill="#1F4899"/>
<path fill-rule="evenodd" clip-rule="evenodd" d="M22.1828 20.9266L17.5364 19.2465L12.5 31.0369V34.8246H20.289V36.2946C22.5016 34.3371 24.9054 32.6683 27.463 31.3445L27.5043 30.8232H25.6105L25.5767 26.6793H20.9678L20.3228 30.8232H18.0014L22.1828 20.9266Z" fill="#1F4899"/>
<path d="M44.062 35.3721L43.4807 37.1534C43.4601 37.2259 43.4324 37.2962 43.3982 37.3634C43.3638 37.4372 43.3223 37.5075 43.2745 37.5734C43.2282 37.642 43.1712 37.7028 43.1057 37.7534C43.0385 37.8094 42.9641 37.8561 42.8844 37.8922C42.7955 37.9309 42.7001 37.9525 42.6032 37.9559C42.4876 37.9594 42.3719 37.9506 42.2582 37.9297L42.2057 37.5134C42.3247 37.4943 42.4399 37.4563 42.5469 37.4009C42.6296 37.3551 42.6983 37.2877 42.7457 37.2059H42.6219C42.5665 37.21 42.5114 37.1941 42.4667 37.1611C42.422 37.128 42.3906 37.0801 42.3782 37.0259L41.8344 35.3721H42.6519L42.8694 36.3846C42.8807 36.4521 42.8957 36.5646 42.9182 36.7296H42.9519C42.9669 36.6696 42.9932 36.5571 43.027 36.3846L43.2445 35.3721H44.062ZM40.3306 35.3721L40.4019 35.6421C40.6344 35.4283 40.8856 35.3196 41.1556 35.3196C41.5194 35.3196 41.6994 35.4921 41.6994 35.8334V37.2059H40.9306V36.0809C40.9319 36.0652 40.9299 36.0494 40.9248 36.0346C40.9196 36.0197 40.9114 36.0061 40.9006 35.9946C40.8692 35.9751 40.8325 35.9659 40.7956 35.9684C40.6939 35.9683 40.5928 35.9835 40.4956 36.0134V37.2059H39.7268V35.3721H40.3306ZM38.2305 36.5646V36.6246C38.2305 36.6996 38.2793 36.7371 38.3843 36.7371C38.4825 36.732 38.5773 36.6995 38.658 36.6434V36.4521H38.3693C38.2755 36.4521 38.2305 36.4896 38.2305 36.5646ZM37.6493 35.9009L37.578 35.4133C37.923 35.3492 38.2734 35.3178 38.6243 35.3196C38.8981 35.3196 39.0968 35.3758 39.2318 35.4883C39.3668 35.6009 39.4268 35.7959 39.4268 36.0696V37.2059H38.8156L38.748 36.9509C38.6734 37.0486 38.5767 37.1273 38.466 37.1807C38.3552 37.2341 38.2335 37.2608 38.1105 37.2584C37.9497 37.2644 37.7915 37.2169 37.6605 37.1234C37.5405 37.0334 37.4805 36.9021 37.4805 36.7371V36.5534C37.4774 36.4871 37.4904 36.4211 37.5185 36.361C37.5466 36.3008 37.5889 36.2485 37.6418 36.2084C37.7505 36.1221 37.8968 36.0809 38.0843 36.0809H38.658V36.0659C38.6543 35.9984 38.6393 35.9534 38.6055 35.9234C38.5718 35.8934 38.5193 35.8821 38.4405 35.8821C38.1743 35.8821 37.908 35.8896 37.6493 35.9009ZM36.0555 35.9496V36.7071C36.1327 36.7394 36.2155 36.756 36.2992 36.7559C36.3817 36.7559 36.4342 36.7296 36.4642 36.6771C36.4942 36.6246 36.5092 36.5046 36.5092 36.3171C36.5092 36.1296 36.4942 36.0134 36.4642 35.9609C36.4342 35.9084 36.3855 35.8821 36.3105 35.8821C36.2213 35.8841 36.1339 35.9072 36.0555 35.9496ZM35.9017 35.3721L35.9654 35.6234C36.0358 35.5297 36.1305 35.457 36.2392 35.4133C36.3653 35.3564 36.5021 35.327 36.6405 35.3271C36.873 35.3271 37.0417 35.4096 37.143 35.5784C37.2442 35.7471 37.3005 35.9871 37.3005 36.3096C37.3005 36.6321 37.2442 36.9209 37.1355 37.0559C37.0267 37.1909 36.8505 37.2584 36.6067 37.2584C36.363 37.2584 36.183 37.2059 36.0442 37.1047C36.0555 37.2772 36.0592 37.4122 36.0555 37.5022V37.8659H35.2867V35.3721H35.9017ZM32.6428 35.3721L32.7066 35.6384C32.7957 35.5399 32.9009 35.4575 33.0178 35.3946C33.1257 35.3439 33.2437 35.3183 33.3629 35.3196C33.6104 35.3196 33.7716 35.4096 33.8391 35.5934C34.0229 35.4096 34.2291 35.3196 34.4541 35.3196C34.8067 35.3196 34.9829 35.4921 34.9829 35.8334V37.2059H34.2141V36.0809C34.2162 36.0655 34.2149 36.0498 34.2104 36.0349C34.2058 36.02 34.1982 36.0063 34.1879 35.9946C34.1608 35.9748 34.1275 35.9655 34.0941 35.9684C34.0207 35.9696 33.9481 35.9849 33.8804 36.0134V37.2059H33.1416V36.0809C33.1416 36.0059 33.1003 35.9684 33.0141 35.9684C32.9435 35.9705 32.8738 35.9844 32.8078 36.0096V37.2059H32.0391V35.3721H32.6428ZM30.764 35.8409C30.674 35.8409 30.614 35.8709 30.584 35.9271C30.554 35.9834 30.5428 36.1034 30.5428 36.2946C30.5428 36.4859 30.5578 36.5909 30.584 36.6471C30.6103 36.7034 30.674 36.7296 30.764 36.7296C30.854 36.7296 30.9103 36.7034 30.9365 36.6471C30.9628 36.5909 30.9778 36.4746 30.9778 36.2946C30.9778 36.1146 30.9665 35.9834 30.9365 35.9271C30.9065 35.8709 30.8503 35.8409 30.764 35.8409ZM30.764 35.3196C31.1353 35.3196 31.4015 35.3946 31.5553 35.5409C31.709 35.6871 31.7878 35.9346 31.7878 36.2946C31.7878 36.6546 31.709 36.8946 31.5553 37.0372C31.4015 37.1797 31.1353 37.2509 30.764 37.2509C30.3927 37.2509 30.119 37.1797 29.9652 37.0372C29.8115 36.8946 29.7365 36.6434 29.7365 36.2946C29.7365 35.9459 29.8115 35.6834 29.9652 35.5409C30.119 35.3983 30.3852 35.3196 30.764 35.3196ZM29.5227 36.6171L29.594 37.0972C29.3952 37.1984 29.129 37.2509 28.7914 37.2509C28.4539 37.2509 28.1802 37.1797 28.0339 37.0334C27.8877 36.8871 27.8164 36.6396 27.8164 36.2871C27.8164 35.9346 27.8914 35.6834 28.0377 35.5371C28.1839 35.3908 28.4389 35.3196 28.7989 35.3196C29.159 35.3196 29.3802 35.3646 29.5677 35.4546L29.489 35.9346H28.9302C28.8139 35.9346 28.7314 35.9571 28.6864 36.0059C28.6414 36.0546 28.6227 36.1446 28.6227 36.2871C28.6227 36.4296 28.6452 36.5234 28.6864 36.5684C28.7277 36.6134 28.8139 36.6434 28.9302 36.6434C29.1702 36.6434 29.369 36.6321 29.5227 36.6171Z" fill="#1F4899"/>
</g>
<path d="M12.5 69L7 60L18 60L12.5 69Z" fill="#F7F8FA"/>
<defs>
<clipPath id="clip0_259_6441">
<rect width="35" height="23.8921" fill="white" transform="translate(12.5 18.054)"/>
</clipPath>
</defs>
</svg>
