<svg width="103" height="70" viewBox="0 0 103 70" fill="none" xmlns="http://www.w3.org/2000/svg">
<g clip-path="url(#clip0_407_347)">
<path fill-rule="evenodd" clip-rule="evenodd" d="M99.3031 6.54842V10.1413C99.3031 10.383 99.369 10.5588 99.4899 10.6577C99.6107 10.7566 99.8195 10.8225 100.105 10.8225H101.105L101.534 13.3276C100.764 13.6462 99.6986 13.811 98.3472 13.811C97.4462 13.811 96.7211 13.5803 96.1827 13.1188C95.6443 12.6574 95.3806 12.0201 95.3806 11.196V6.54842H93.7875V4.28504L95.3587 4.20813V1.74698H99.3031V4.19714H101.566V6.54842H99.3031Z" fill="white"/>
<path fill-rule="evenodd" clip-rule="evenodd" d="M93.8204 2.62596H92.1723C91.8317 2.62596 91.59 2.69188 91.4692 2.83472C91.3483 2.97755 91.2824 3.23026 91.2824 3.59284V4.19714H93.5018V6.54842H91.2824V13.844L90.766 13.5473C89.8584 11.675 88.7016 9.9342 87.3269 8.37231V6.54842H85.7558V4.28504L87.3269 4.19714V3.05447C87.3269 1.02182 88.4806 9.53674e-07 90.777 9.53674e-07C92.1833 9.53674e-07 93.326 0.0878986 94.194 0.263695L93.8204 2.62596Z" fill="white"/>
<path fill-rule="evenodd" clip-rule="evenodd" d="M7.98776 70V68.8573C36.0273 35.8405 68.1322 31.3797 102.555 37.9281L84.5692 48.0584C49.8823 43.4987 27.6001 52.0907 7.98776 70Z" fill="white"/>
<path fill-rule="evenodd" clip-rule="evenodd" d="M45.2347 38.6533C44.9396 36.391 44.7964 34.1116 44.8062 31.8302C44.8062 11.0752 55.4638 2.20844 68.6156 2.20844C81.7674 2.20844 92.4251 11.0752 92.4251 31.8302V31.951C86.6044 31.2371 80.729 31.0789 74.8784 31.4786L74.6916 22.6887C74.5927 18.5465 73.1863 14.5142 68.7694 14.6131C64.3525 14.712 62.8363 18.0741 62.7594 22.6887L62.5946 33.1706C56.6408 34.4192 50.8256 36.2558 45.2347 38.6533Z" fill="white"/>
<path fill-rule="evenodd" clip-rule="evenodd" d="M28.3692 8.41626L14.7559 3.49396L0 38.038V49.1351H22.8206V53.4422C29.3031 47.7068 36.3459 42.8175 43.8393 38.9389L43.9601 37.4117H38.4115L38.3127 25.2708H24.8093L22.9195 37.4117H16.1183L28.3692 8.41626Z" fill="white"/>
<path d="M92.469 50.7393L90.766 55.9582C90.7055 56.1707 90.6245 56.3767 90.5242 56.5735C90.4234 56.7898 90.302 56.9958 90.1617 57.1888C90.026 57.3899 89.8591 57.5679 89.6672 57.7162C89.4704 57.8803 89.2524 58.017 89.019 58.1227C88.7585 58.2362 88.4789 58.2995 88.1949 58.3095C87.8562 58.3198 87.5174 58.294 87.1841 58.2326L87.0303 57.013C87.379 56.9571 87.7165 56.8458 88.0301 56.6834C88.2725 56.5493 88.4737 56.3518 88.6125 56.1121H88.2499C88.0875 56.1241 87.9261 56.0774 87.7951 55.9807C87.6641 55.8839 87.572 55.7434 87.5357 55.5847L85.9426 50.7393H88.3378L88.975 53.7059C89.008 53.9036 89.0519 54.2332 89.1179 54.7167H89.2168C89.2607 54.5409 89.3376 54.2113 89.4365 53.7059L90.0738 50.7393H92.469ZM81.5366 50.7393L81.7454 51.5304C82.4266 50.9041 83.1628 50.5855 83.9538 50.5855C85.0196 50.5855 85.547 51.0909 85.547 52.0907V56.1121H83.2946V52.8159C83.2984 52.77 83.2926 52.7237 83.2775 52.6802C83.2623 52.6367 83.2382 52.5968 83.2067 52.5632C83.1148 52.5059 83.0071 52.479 82.8991 52.4863C82.6011 52.4862 82.3049 52.5306 82.0201 52.6181V56.1121H79.7677V50.7393H81.5366ZM75.3838 54.2332V54.409C75.3838 54.6288 75.5266 54.7387 75.8342 54.7387C76.1219 54.7235 76.3997 54.6283 76.6363 54.464V53.9036H75.7903C75.5156 53.9036 75.3838 54.0135 75.3838 54.2332ZM73.6807 52.2885L73.472 50.8601C74.4829 50.6722 75.5092 50.5802 76.5374 50.5855C77.3395 50.5855 77.9218 50.7503 78.3174 51.0799C78.7129 51.4095 78.8887 51.9808 78.8887 52.7829V56.1121H77.0978L76.9 55.3649C76.6812 55.6511 76.3981 55.8818 76.0736 56.0383C75.7491 56.1948 75.3924 56.2728 75.0322 56.2659C74.561 56.2835 74.0973 56.1444 73.7137 55.8703C73.3621 55.6066 73.1863 55.2221 73.1863 54.7387V54.2003C73.1771 54.0061 73.2153 53.8126 73.2976 53.6365C73.3799 53.4604 73.5039 53.3069 73.6588 53.1895C73.9774 52.9367 74.4059 52.8159 74.9553 52.8159H76.6363V52.7719C76.6253 52.5742 76.5814 52.4423 76.4825 52.3544C76.3836 52.2665 76.2298 52.2336 75.9991 52.2336C75.219 52.2336 74.4389 52.2555 73.6807 52.2885ZM69.0111 52.4313V54.6508C69.2373 54.7453 69.4801 54.7939 69.7253 54.7936C69.967 54.7936 70.1209 54.7167 70.2088 54.5629C70.2967 54.409 70.3406 54.0574 70.3406 53.5081C70.3406 52.9587 70.2967 52.6181 70.2088 52.4643C70.1209 52.3105 69.978 52.2336 69.7583 52.2336C69.4971 52.2393 69.241 52.3071 69.0111 52.4313ZM68.5607 50.7393L68.7474 51.4754C68.9536 51.2009 69.231 50.9881 69.5495 50.8601C69.919 50.6934 70.3198 50.6073 70.7252 50.6074C71.4064 50.6074 71.9008 50.8492 72.1975 51.3436C72.4941 51.838 72.6589 52.5412 72.6589 53.4861C72.6589 54.431 72.4941 55.277 72.1755 55.6726C71.8568 56.0681 71.3404 56.2659 70.6263 56.2659C69.9121 56.2659 69.3847 56.1121 68.9782 55.8154C69.0111 56.3208 69.0221 56.7164 69.0111 56.9801V58.0458H66.7587V50.7393H68.5607ZM59.0127 50.7393L59.1995 51.5194C59.4605 51.231 59.7689 50.9895 60.1114 50.8052C60.4275 50.6568 60.7731 50.5816 61.1223 50.5855C61.8474 50.5855 62.3199 50.8492 62.5177 51.3875C63.056 50.8492 63.6603 50.5855 64.3196 50.5855C65.3524 50.5855 65.8688 51.0909 65.8688 52.0907V56.1121H63.6164V52.8159C63.6224 52.7707 63.6186 52.7248 63.6053 52.6812C63.5921 52.6376 63.5696 52.5973 63.5395 52.5632C63.4602 52.5052 63.3626 52.4779 63.2648 52.4863C63.0495 52.49 62.837 52.5347 62.6385 52.6181V56.1121H60.474V52.8159C60.474 52.5961 60.3532 52.4863 60.1005 52.4863C59.8937 52.4924 59.6894 52.5333 59.4962 52.6071V56.1121H57.2438V50.7393H59.0127ZM53.5081 52.1127C53.2444 52.1127 53.0686 52.2006 52.9807 52.3654C52.8928 52.5302 52.8598 52.8818 52.8598 53.4422C52.8598 54.0025 52.9038 54.3102 52.9807 54.475C53.0576 54.6398 53.2444 54.7167 53.5081 54.7167C53.7718 54.7167 53.9366 54.6398 54.0135 54.475C54.0904 54.3102 54.1344 53.9695 54.1344 53.4422C54.1344 52.9148 54.1014 52.5302 54.0135 52.3654C53.9256 52.2006 53.7608 52.1127 53.5081 52.1127ZM53.5081 50.5855C54.5958 50.5855 55.3759 50.8052 55.8264 51.2337C56.2769 51.6622 56.5076 52.3874 56.5076 53.4422C56.5076 54.4969 56.2769 55.2001 55.8264 55.6176C55.3759 56.0352 54.5958 56.2439 53.5081 56.2439C52.4203 56.2439 51.6183 56.0352 51.1678 55.6176C50.7173 55.2001 50.4976 54.464 50.4976 53.4422C50.4976 52.4203 50.7173 51.6512 51.1678 51.2337C51.6183 50.8162 52.3984 50.5855 53.5081 50.5855ZM49.8713 54.3871L50.08 55.7934C49.4977 56.0901 48.7176 56.2439 47.7288 56.2439C46.7399 56.2439 45.9378 56.0352 45.5093 55.6067C45.0808 55.1781 44.8721 54.453 44.8721 53.4202C44.8721 52.3874 45.0918 51.6512 45.5203 51.2227C45.9488 50.7942 46.696 50.5855 47.7507 50.5855C48.8055 50.5855 49.4538 50.7173 50.0031 50.981L49.7724 52.3874H48.1353C47.7947 52.3874 47.553 52.4533 47.4211 52.5961C47.2893 52.739 47.2343 53.0027 47.2343 53.4202C47.2343 53.8377 47.3003 54.1124 47.4211 54.2442C47.542 54.3761 47.7947 54.464 48.1353 54.464C48.8385 54.464 49.4208 54.431 49.8713 54.3871Z" fill="white"/>
</g>
<defs>
<clipPath id="clip0_407_347">
<rect width="102.544" height="70" fill="white"/>
</clipPath>
</defs>
</svg>
