<svg width="1142" height="540" viewBox="0 0 1142 540" fill="none" xmlns="http://www.w3.org/2000/svg">
<path fill-rule="evenodd" clip-rule="evenodd" d="M1140.77 210.763C1138.7 209.777 1132.06 203.996 1130.41 200.753C1128.76 197.51 1120.78 195.958 1120.78 197.649C1120.78 199.339 1118.19 197.229 1117.57 195.4C1116.95 193.567 1108.56 193.277 1108.45 195.249C1108.35 197.225 1110.42 197.364 1111.66 199.629C1112.91 201.882 1110 203.144 1110.62 205.683C1111.25 208.221 1107.52 204.416 1106.17 203.01C1104.83 201.605 1105.45 196.101 1105.86 193.281C1106.28 190.466 1103.48 191.02 1103.17 188.209C1102.85 185.386 1093.54 179.609 1089.61 177.352C1085.67 175.095 1080.59 173.119 1079.25 170.3C1077.9 167.489 1070.85 167.204 1068.17 163.391C1065.47 159.586 1053.66 152.819 1048.59 152.399C1043.52 151.976 1044.65 148.167 1042.17 148.729C1039.68 149.295 1029.02 148.59 1025.7 147.881C1022.38 147.185 1021.66 150.566 1019.28 149.291C1016.9 148.024 1004.57 141.962 1003.12 144.223C1001.68 146.48 1002.3 149.719 1000.85 150.281C999.398 150.843 1000.85 153.666 1004.26 157.895C1007.68 162.128 1005.61 165.375 1002.5 167.204C999.395 169.029 994.421 165.505 992.868 162.266C991.318 159.028 987.071 160.429 986.036 156.2C985 151.976 987.277 151.271 989.348 153.666C991.419 156.066 994.221 154.09 994.529 150.994C994.84 147.894 988.932 145.771 985.718 146.056C982.513 146.337 980.75 152.403 977.438 154.946C974.125 157.48 961.283 153.952 959.93 152.265C958.587 150.574 940.663 152.265 938.802 153.956C936.935 155.646 938.284 162.275 937.353 162.841C936.42 163.399 935.489 155.227 935.489 153.675C935.489 152.118 933.313 151.002 930.099 151.002C926.894 151.002 925.03 150.851 926.373 149.022C927.723 147.197 925.128 145.355 927.615 142.964C930.099 140.565 923.063 133.093 916.225 129.43C909.39 125.76 893.855 127.874 889.71 129.569C885.568 131.26 877.278 130.697 873.346 130.836C869.414 130.987 872.619 128.722 871.481 126.188C870.341 123.649 863.608 120.549 862.677 122.664C861.743 124.782 859.987 122.664 859.987 121.111C859.987 119.567 853.666 116.459 851.182 117.164C848.698 117.864 847.561 114.055 850.455 114.055C853.364 114.055 858.329 114.903 856.153 110.397C853.977 105.883 835.336 104.473 833.579 105.321C831.813 106.168 833.471 109.403 829.434 114.626C825.388 119.84 821.459 116.32 821.973 113.782C822.497 111.24 827.462 111.664 827.462 109.13C827.462 106.588 820.63 108.001 819.597 105.883C818.553 103.769 821.04 102.359 823.527 103.345C826.011 104.335 830.362 104.897 830.571 103.345C830.781 101.797 827.986 101.512 823.838 100.522C819.693 99.5358 809.65 96.2929 804.367 97.0018C799.088 97.7025 796.7 94.3252 793.809 94.04C790.909 93.7548 790.906 96.1544 792.25 98.4073C793.597 100.668 789.458 102.074 786.034 101.369C782.62 100.668 777.649 103.907 779.618 107.293C781.578 110.678 783.547 106.307 785.205 107.439C786.86 108.568 780.857 110.963 783.338 112.515C785.828 114.063 785.412 117.306 785.52 118.997C785.621 120.688 781.375 121.535 779.824 118.997C778.268 116.459 776.096 118.712 773.19 118.435C770.293 118.15 768.117 119.979 771.226 120.549C774.336 121.111 775.365 123.788 771.226 124.354C767.085 124.916 768.117 119.136 765.636 119.84C763.152 120.549 757.765 117.164 754.859 117.302C751.96 117.441 750.616 120.545 746.782 120.969C742.952 121.393 737.771 118.288 736.215 115.473C734.665 112.65 734.153 111.807 732.286 115.049C730.418 118.296 730.316 124.493 728.452 124.916C726.585 125.34 725.86 130.84 724.002 132.25C722.134 133.663 722.027 130.131 719.651 130.416C717.268 130.697 709.607 120.549 709.182 117.587C708.775 114.626 704.011 108.983 702.772 107.859C701.527 106.73 704.011 106.168 705.564 108.001C707.123 109.831 709.083 109.831 710.636 108.706C712.193 107.578 711.986 102.363 709.296 102.221C706.599 102.078 707.635 98.9817 708.982 98.4114C710.331 97.8492 705.875 92.3534 707.53 91.7912C709.185 91.2331 708.467 88.8294 706.192 88.4098C703.912 87.9861 701.53 85.4481 701.419 83.8918C701.32 82.3437 691.69 81.7774 692.097 84.0344C692.519 86.2954 688.996 85.5866 689.517 83.7574C690.035 81.9282 686.094 82.4863 681.539 80.7997C676.984 79.1049 676.873 74.7295 675.323 74.4525C673.767 74.1632 674.287 80.5104 672.016 79.1049C669.736 77.6913 667.243 80.376 668.488 84.0344C669.727 87.701 668.592 88.2632 668.383 91.2249C668.179 94.1826 666.934 92.9197 664.241 91.6445C661.55 90.3775 661.55 94.753 655.748 92.7771C649.951 90.8053 647.359 92.9197 646.327 90.3816C645.291 87.8395 643.526 87.5665 643.319 89.6768C643.119 91.7953 634.209 90.9479 633.485 87.8395C632.761 84.7433 635.038 84.1811 636.385 83.3378C637.726 82.4904 634.934 81.2193 630.07 81.643C625.198 82.0626 622.086 78.2575 617.121 78.9583C612.147 79.6671 601.068 81.0726 599.512 82.0626C597.959 83.0485 600.964 86.8536 598.578 87.1428C596.199 87.4199 597.854 80.9382 597.441 77.8379C597.031 74.7295 593.404 74.3099 593.919 76.7135C594.433 79.109 588.221 79.9523 586.667 78.1149C585.111 76.2817 582.624 73.8862 578.59 72.4807C574.55 71.0711 569.579 76.9905 570.719 78.6853C571.866 80.3801 574.861 79.109 574.96 80.2293C575.176 82.5474 566.371 81.643 566.371 83.6148C566.371 85.5906 558.189 88.2672 555.702 88.6909C548.891 89.8561 547.412 89.8194 544.204 93.49C540.996 97.1525 543.48 90.2472 545.964 86.8577C548.448 83.4763 551.037 84.8859 552.491 82.2093C553.943 79.5327 556.22 79.8097 560.158 78.9623C564.097 78.115 563.884 75.0187 565.755 73.8862C567.613 72.7659 572.171 70.3622 572.997 67.8242C573.829 65.2861 583.154 61.0573 585.018 61.1999C586.88 61.3425 587.293 56.1238 588.325 56.1238C589.367 56.1238 594.748 52.885 596.822 51.618C598.896 50.3469 599.928 47.6662 600.033 45.837C600.138 44.0038 597.238 44.2849 596.923 42.5942C596.612 40.8994 598.267 42.032 600.446 40.8994C602.621 39.775 600.446 35.8233 598.692 36.5281C596.923 37.2329 599.623 34.4137 598.067 31.8756C596.51 29.3375 593.407 33.4278 593.506 30.7471C593.614 28.0705 593.299 24.6851 592.057 22.9985C590.815 21.2996 588.541 25.9562 585.949 23.2755C583.361 20.603 575.798 18.9042 575.798 20.0367C575.798 21.1652 572.171 18.3419 571.453 19.4704C570.725 20.5989 564.716 20.4563 562.846 19.7475C560.987 19.0467 558.399 20.7334 558.294 23.2714C558.195 25.8176 550.842 24.8236 549.492 24.3958C548.149 23.9721 554.571 16.7816 554.571 15.5106C554.571 14.2476 543.695 15.7957 543.07 14.3902C542.454 12.9806 537.168 12.5488 534.786 12.6955C532.398 12.834 534.685 11.8481 536.857 11.567C539.03 11.2859 540.999 8.74372 543.384 8.18559C545.763 7.61931 545.243 6.49083 544.207 4.51496C543.172 2.54724 540.682 3.52907 538.297 2.54724C535.924 1.56135 533.021 0.147687 530.953 0.0091724C528.882 -0.133416 526.601 1.41469 521.732 2.68576C516.86 3.95276 516.453 9.03297 513.966 10.5811C511.476 12.1332 507.131 18.3338 509.199 18.896C511.273 19.4623 510.234 21.157 510.543 22.9863C510.854 24.8155 508.983 25.2391 506.61 24.6769C504.231 24.1188 495.836 24.2533 495.941 26.6528C496.04 29.0524 500.813 30.1727 500.499 31.4438C500.188 32.7148 496.875 31.3053 495.217 30.0383C493.559 28.7713 489.827 29.4679 489.106 31.8675C488.382 34.2629 485.479 33.7007 484.548 33.1385C483.614 32.5763 481.543 34.267 479.993 33.5622C478.44 32.8534 483.103 29.7531 481.962 28.2009C480.816 26.6569 475.848 28.0665 475.334 30.6045C474.816 33.1426 471.808 28.7753 470.668 29.6186C469.531 30.466 468.289 31.4478 466.113 32.7189C463.937 33.99 460.209 31.3093 459.383 33.5663C458.554 35.8192 463.524 36.5281 463.626 37.5099C463.731 38.5039 452.341 38.3573 452.027 39.9094C451.715 41.4657 447.882 41.4657 443.222 41.6042C438.565 41.7468 440.427 44.8471 436.695 45.837C432.969 46.827 431.311 46.9655 430.069 49.5036C428.827 52.0417 425.921 52.4654 424.685 50.4854C423.44 48.5136 420.02 51.4713 421.881 51.7565C423.746 52.0417 421.992 54.5797 420.849 54.0094C419.708 53.4472 416.399 56.69 418.263 56.4089C420.125 56.1319 421.058 58.2422 420.124 59.7944C419.188 61.3425 415.157 57.9611 414.115 59.3707C413.08 60.7844 416.081 62.6136 417.949 62.3325C419.813 62.0514 420.849 63.7421 421.055 65.5753C421.262 67.4045 416.704 64.4468 415.773 65.999C414.839 67.5471 416.497 68.2519 418.461 68.5412C420.436 68.8182 418.981 69.8122 420.744 71.9225C420.882 72.0896 420.989 72.2444 421.079 72.3829C422.148 74.1306 420.136 74.7458 420.334 76.4324C420.531 78.2698 418.359 78.9705 418.359 77.2798C418.359 75.5891 412.873 75.0269 411.73 76.8561C410.59 78.6975 409.767 80.103 408.417 78.4124C407.073 76.7217 403.135 78.832 398.062 79.1171C392.99 79.3982 382.53 79.9604 379.939 81.2315C377.347 82.5026 375.171 87.4321 377.551 90.6749C379.939 93.9219 377.652 95.3315 377.652 97.4458C377.652 99.5562 383.868 103.928 387.187 104.351C390.503 104.775 393.193 110.271 391.224 113.656C389.258 117.042 383.249 112.67 379.316 108.441C375.378 104.209 366.265 102.514 363.263 102.803C360.256 103.08 362.018 99.1365 358.191 99.271C354.354 99.4176 351.146 104.07 353.732 104.07C356.323 104.07 357.984 103.789 356.635 105.48C355.291 107.17 357.359 106.747 360.465 108.576C363.572 110.413 357.88 112.951 354.665 109.99C351.457 107.028 348.043 109.843 347.109 112.108C346.178 114.361 350.835 120.843 356.428 121.975C362.021 123.104 360.16 125.495 362.749 126.766C365.331 128.037 363.476 129.451 361.713 129.589C359.945 129.736 356.425 125.923 353.63 123.951C350.832 121.975 343.275 124.798 341.725 122.537C340.166 120.28 342.755 118.032 341.3 116.341C339.855 114.646 341.1 110.837 342.967 106.889C344.828 102.942 342.656 96.1748 339.956 95.0463C337.266 93.9259 337.473 97.727 338.095 98.8514C338.717 99.9839 338.406 105.341 336.332 108.865C334.261 112.389 327.938 112.389 327.938 114.789C327.938 117.188 323.697 119.021 325.143 120.712C326.594 122.403 332.292 131.15 333.121 133.826C333.95 136.499 328.049 144.96 328.973 149.898C329.907 154.836 328.147 157.084 329.285 159.488C330.425 161.892 333.013 159.765 334.674 160.759C336.332 161.745 339.023 159.341 342.853 158.36C346.684 157.378 353.729 162.873 356.32 164.56C358.906 166.251 357.559 169.066 358.906 171.889C360.253 174.716 355.803 174.716 355.695 178.941C355.593 183.174 363.467 184.999 363.772 186.27C364.083 187.537 358.182 186.555 355.901 185.423C353.624 184.298 353.418 180.204 352.699 179.361C351.969 178.517 354.249 175.132 354.45 172.451C354.659 169.771 351.87 168.223 350.937 166.389C350 164.556 348.348 161.879 346.48 162.442C344.616 163.008 337.781 163.847 335.71 166.389C333.633 168.927 336.021 176.114 337.161 179.646C338.298 183.174 331.149 188.099 331.358 190.919C331.565 193.75 329.183 195.009 326.073 197.27C322.967 199.523 319.552 201.213 319.651 204.884C319.759 208.547 315.512 206.575 313.339 204.884C311.164 203.189 308.366 205.87 305.256 205.727C302.153 205.593 302.153 202.065 299.663 203.332C297.185 204.603 295.527 201.792 296.245 199.25C296.969 196.716 299.768 198.684 299.977 200.521C300.184 202.354 301.943 201.507 304.017 199.955C306.085 198.406 305.059 201.93 308.06 202.212C311.068 202.497 309.404 200.097 311.685 200.378C313.962 200.663 314.064 199.678 313.342 198.121C312.618 196.569 315 195.449 316.449 194.597C318.074 193.644 317.275 190.511 318.625 189.525C319.965 188.535 319.038 186.559 320.483 186.413C321.94 186.274 322.56 183.312 323.91 183.312C325.247 183.312 325.978 180.347 325.149 178.799C324.317 177.25 325.669 173.022 327.016 172.455C328.357 171.893 328.465 170.198 327.226 168.931C325.978 167.664 321.417 163.428 321.734 160.759C322.042 158.083 320.899 153.141 321.521 151.031C322.141 148.912 321.629 144.541 321.417 142.003C321.219 139.46 322.563 136.645 323.188 131.993C323.805 127.34 319.561 122.403 317.49 121.136C315.419 119.865 316.76 117.327 319.768 113.941C322.772 110.56 322.976 99.9839 322.772 97.727C322.566 95.47 316.455 93.5023 314.076 93.7752C311.69 94.0604 302.892 93.5023 300.716 92.9319C298.538 92.3697 297.81 95.47 296.775 98.2892C295.742 101.112 293.465 105.484 292.112 111.827C290.769 118.17 285.277 120.146 282.793 121.555C280.309 122.969 278.756 127.613 279.887 129.874C281.03 132.131 282.691 130.298 283.829 131.146C284.966 131.993 283.727 137.916 282.997 138.76C282.272 139.603 284.346 141.722 282.59 143.266C280.821 144.818 279.163 148.061 280.201 149.755C281.24 151.446 286.31 152.293 288.485 153.984C290.661 155.675 289.832 158.775 291.496 161.741C293.148 164.703 294.917 162.869 295.74 164.703C296.568 166.536 292.741 173.869 291.388 174.142C290.041 174.427 284.553 166.674 282.898 164.984C281.24 163.293 274.818 160.604 271.609 158.355C268.401 156.099 265.81 156.384 262.284 153.137C258.771 149.898 255.766 148.338 249.341 148.488C242.919 148.623 238.78 146.517 236.601 146.936C234.425 147.36 235.26 143.979 231.427 141.722C227.59 139.46 225.106 136.364 222.93 137.916C220.755 139.46 221.584 145.107 224.903 145.808C228.207 146.517 226.558 148.912 230.077 148.627C233.599 148.35 234.632 150.041 234.533 152.994C234.425 155.96 236.188 158.914 237.741 160.894C239.291 162.869 238.361 166.104 235.563 166.104C232.764 166.104 229.559 166.67 230.801 169.347C232.043 172.028 229.972 172.732 227.174 171.323C224.376 169.909 226.028 167.237 227.174 165.676C228.314 164.132 224.687 162.156 222.927 161.305C221.162 160.458 214.126 167.518 212.157 168.634C210.188 169.763 205.321 166.939 200.348 168.634C195.38 170.329 195.691 175.69 193.821 175.124C191.959 174.566 186.474 175.829 184.394 174.13C182.32 172.439 183.984 171.457 186.156 171.596C188.335 171.742 189.056 170.748 187.814 168.777C186.569 166.801 189.475 163.701 189.373 162.291C189.272 160.881 181.188 164.548 179.842 166.096C178.498 167.652 179.946 170.48 178.498 171.457C177.047 172.439 177.053 169.758 175.389 168.915C173.734 168.068 161.616 171.877 159.339 175.401C157.055 178.929 152.605 179.063 152.605 181.039C152.605 183.019 147.117 182.873 144.941 184.286C142.759 185.692 144.217 191.469 143.385 194.296C142.556 197.119 134.063 196.268 131.474 196.41C128.888 196.557 127.952 189.639 125.881 189.216C123.813 188.792 125.049 184.848 125.68 183.162C126.297 181.467 127.955 182.873 130.543 180.624C133.132 178.359 135.718 181.74 136.756 180.196C137.794 178.644 132.821 174.558 132.509 171.03C132.198 167.514 126.707 166.524 123.6 167.648C120.494 168.777 117.073 167.783 114.9 166.377C112.722 164.972 112.934 168.915 116.145 170.044C119.357 171.164 117.699 174.553 118.216 176.668C118.737 178.782 117.384 183.577 115.52 187.244C113.658 190.906 115.005 190.768 117.806 190.625C120.601 190.491 120.395 195.428 120.395 199.083C120.395 202.753 118.216 203.739 118.216 206.42C118.216 209.101 115.933 205.153 115.206 206.277C114.484 207.406 113.554 205.711 113.144 203.458C112.725 201.205 108.481 202.464 106.099 201.621C103.711 200.778 102.783 202.187 101.649 204.583C100.506 206.986 97.1927 207.968 95.433 208.249C93.4788 208.571 90.5609 213.187 88.6995 214.877C86.835 216.576 86.5238 219.815 89.1095 223.196C91.7041 226.578 92.2159 228.835 92.0124 230.664C91.8119 232.501 84.7611 231.939 83.6269 229.963C82.4866 227.992 77.9258 227.291 76.3726 227.706C74.8164 228.13 70.5728 221.363 68.4001 221.225C66.2244 221.078 64.8747 224.745 64.1534 226.574C63.4292 228.415 65.1859 228.981 66.2244 232.078C67.2598 235.186 71.0905 235.321 73.0597 235.321C75.0289 235.321 74.2986 239.407 73.6822 241.101C73.0597 242.792 69.4325 244.059 68.3971 242.226C67.3616 240.393 63.0072 242.226 62.9055 239.969C62.8067 237.716 59.7003 234.339 56.4832 235.035C53.275 235.74 52.6525 232.917 52.859 229.531C53.0685 226.154 51.0993 224.182 51.1981 222.63C51.3028 221.078 49.7496 217.974 51.4016 216.421C53.0596 214.873 51.8206 212.482 51.9223 210.364C52.0301 208.241 49.1272 205.006 46.5385 205.006C43.9468 205.006 44.4735 201.478 42.2949 200.773C40.1192 200.069 35.7678 195.127 35.4596 193.021C35.1483 190.898 31.8324 190.617 32.9726 189.916C34.1158 189.208 36.7015 190.202 38.563 192.736C40.4274 195.274 43.4291 197.531 48.2952 198.378C53.1733 199.225 55.1335 202.326 60.5173 203.593C65.9072 204.864 69.1183 205.707 76.8843 207.263C84.6563 208.815 95.014 198.097 97.1867 195.131C99.3624 192.173 96.5642 186.115 96.5642 183.854C96.5642 181.601 93.0388 181.316 92.5331 179.63C92.0034 177.935 89.7259 174.839 86.7273 174.839C83.7196 174.839 83.3066 170.178 80.9274 170.471C78.5393 170.744 76.8813 169.05 70.6685 163.411C64.4557 157.781 55.8637 153.687 54.3045 154.669C52.7513 155.659 51.7158 156.221 50.6804 154.11C49.6449 151.996 47.2627 152.277 45.6078 153.968C43.9438 155.659 42.2949 152.42 39.1855 153.402C36.0761 154.392 34.4211 151.568 35.2441 150.301C36.0761 149.03 40.6369 150.163 40.4244 148.048C40.2239 145.934 38.56 148.048 35.7648 145.51C32.9667 142.972 31.4164 144.663 30.794 146.785C30.1745 148.896 27.9988 148.321 26.5444 146.5C26.4157 146.325 26.2361 146.183 26.0715 146.04C25.5927 149.572 24.0604 149.926 22.5102 149.454C20.6428 148.892 18.7783 153.116 16.7134 153.116C14.6394 153.116 12.362 156.217 11.937 158.755C11.53 161.293 9.2556 159.883 9.2556 161.574C9.2556 163.273 9.2556 164.963 8.21115 166.654C7.18167 168.349 8.21116 169.196 9.2556 172.007C10.2911 174.835 12.5625 174.549 13.604 175.397C14.6394 176.24 18.5718 180.754 18.5718 182.445C18.5718 184.14 15.4684 188.368 14.2265 189.501C12.9785 190.617 11.3176 193.44 12.1525 195.127C12.9785 196.826 16.5039 203.874 18.7783 209.516C21.0647 215.154 17.9583 212.62 16.5039 215.154C15.0554 217.688 17.1204 220.797 17.5364 222.488C17.9583 224.178 15.6749 223.893 15.8814 225.299C16.0849 226.716 19.1943 227.283 19.4038 228.407C19.6103 229.527 17.3329 230.945 18.3623 233.202C19.4098 235.463 21.8877 235.451 22.0942 238.274C22.3037 241.097 17.5364 241.37 17.7429 243.635C17.9553 245.888 23.9587 248.708 26.6551 252.936C29.3455 257.169 29.139 258.289 28.5225 260.559C27.2656 265.097 19.8198 269.02 18.1588 274.092C16.5039 279.168 10.2911 281.98 7.38817 285.935C6.20306 287.549 5.02993 289.716 4.04534 291.724C5.27832 291.301 6.25394 290.791 6.97218 290.303C8.63013 289.166 9.76735 294.67 11.4283 296.503C13.0862 298.341 16.3991 296.642 17.5364 298.34C18.6796 300.031 16.5997 300.166 14.2294 299.607C11.8443 299.041 11.2218 301.013 7.48992 302.704C4.70971 303.971 4.98504 305.315 4.05132 306.382C5.73022 309.695 3.48271 310.122 2.62381 312.644C1.69009 315.394 0.445134 315.822 0.2955 317.512C0.136888 319.207 0.60674 320.478 0.762359 323.008C0.914986 325.554 1.22623 325.974 2.31257 328.088C3.40191 330.203 1.38185 330.203 0.448127 331.258C-0.482598 332.317 0.136888 334.643 1.38484 336.334C2.6268 338.025 2.6268 340.139 2.16593 341.622C1.69608 343.097 3.24629 345.643 4.33862 347.122C5.42197 348.605 5.27533 352.63 6.20007 353.673C7.13379 354.736 8.22013 355.795 9.93195 355.152C11.6408 354.524 12.7271 355.575 13.4992 357.486C14.2803 359.385 15.5223 358.541 17.2341 357.486C18.9369 356.423 22.8214 359.385 23.7582 360.02C24.6919 360.652 24.222 364.249 24.3776 366.571C24.5303 368.901 23.4469 371.859 25.1557 373.342C26.8646 374.821 26.3977 378.202 28.4148 379.265C30.4408 380.329 31.2189 384.126 32.4609 384.549C33.7029 384.973 36.0312 387.511 36.3424 389.41C36.6536 391.308 34.1667 393.011 32.7661 393.854C31.3716 394.698 28.729 391.312 27.8013 392.795C26.8676 394.278 28.1125 397.024 28.8846 401.68C29.6657 406.337 30.2882 406.752 31.8384 406.752C33.3946 406.752 34.0141 405.282 35.1004 404.434C36.1868 403.587 38.6767 404.854 39.766 404.218C40.8554 403.583 44.7309 403.375 45.512 405.062C46.2901 406.752 47.0622 410.773 46.4457 412.26C45.8232 413.731 47.2208 415.426 48.0019 417.548C48.777 419.659 52.042 418.599 53.1284 419.239C54.2177 419.871 56.6987 424.519 56.2348 426.629C55.7679 428.752 57.788 429.171 58.8773 428.54C59.9637 427.908 61.053 429.599 62.295 430.662C63.534 431.718 64.6233 431.294 65.8683 430.235C67.1102 429.175 69.1303 428.336 69.7498 429.811C70.3752 431.294 72.8562 434.048 72.8562 434.891C72.8562 435.734 76.7437 434.891 78.6051 436.158C80.4666 437.425 82.4926 436.781 84.5127 438.273C86.5328 439.751 88.3942 439.971 88.5498 441.658C88.7084 443.349 86.5327 444.832 86.5327 445.671C86.5327 446.518 88.2386 447.154 88.2386 448.425C88.2386 449.7 86.0629 449.7 85.7547 450.751C85.4434 451.814 86.9966 453.289 87.3049 454.34C87.6221 455.404 86.0659 459.001 86.0659 460.06C86.0659 461.115 81.4063 459.84 80.3199 459.84C79.2306 459.84 75.9656 464.708 74.8822 464.916C73.9515 465.099 74.3884 467.446 74.7236 469.434C78.0724 468.566 81.502 468.208 81.8701 469.218C82.4956 470.913 74.6219 475.423 73.1734 476.124C71.7189 476.832 75.9686 479.786 75.8668 481.481C75.7651 483.176 71.309 483.599 71.716 486.981C72.1349 490.358 70.2735 491.075 67.8853 491.075C65.5091 491.075 64.8837 493.043 66.0269 493.324C67.1701 493.609 67.0593 497.838 71.5184 499.386C75.9656 500.938 80.7329 506.585 84.5666 512.215C85.1022 513.005 85.7277 513.637 86.3891 514.166C87.4964 513.258 88.457 512.606 89.0167 512.496C91.1954 512.072 95.2295 513.771 97.4082 515.877C99.5868 517.992 107.35 515.454 108.284 517.148C109.217 518.843 111.079 520.961 112.635 520.961C114.188 520.961 115.741 525.19 116.983 523.915C118.225 522.652 122.882 522.652 124.13 522.652C125.372 522.652 125.372 523.915 126.614 523.915C127.859 523.915 127.859 530.266 128.792 529.847C129.723 529.423 133.141 533.648 135.32 534.072C137.495 534.495 139.668 539.567 140.599 539.148C141.529 538.724 143.086 541.262 143.702 539.148C144.304 537.147 147.368 538.117 148.227 534.642C144.289 528.083 140.063 520.811 140.189 517.996C140.392 513.205 141.847 510.104 137.495 505.028C133.144 499.96 137.908 496.575 141.021 491.209C143.798 486.423 149.699 484.329 153.446 480.915C152.686 480.194 151.905 479.534 151.166 479.089C148.365 477.395 147.434 475.7 149.61 474.857C151.785 474.009 150.852 472.323 148.679 468.941C146.503 465.548 145.569 462.162 144.325 462.162C143.083 462.162 141.218 461.743 139.351 462.59C137.492 463.433 137.8 460.467 138.112 457.514C138.423 454.548 134.691 454.976 134.072 453.705C133.452 452.434 135.005 448.213 135.628 447.785C136.247 447.362 138.112 446.09 138.112 444.823C138.112 443.548 134.691 443.125 135.933 440.163C137.175 437.205 139.665 437.205 139.665 434.247C139.665 431.29 141.523 428.748 143.699 430.854C145.875 432.976 146.811 438.476 149.298 437.209C151.782 435.938 150.226 432.976 149.918 431.29C149.607 429.595 148.984 427.057 151.782 426.214C154.574 425.366 153.338 421.557 155.508 421.557C157.684 421.557 161.724 417.752 162.966 416.901C164.211 416.053 167.006 413.939 168.248 414.782C169.493 415.638 171.046 417.752 171.983 414.782C172.911 411.816 176.64 413.096 176.948 414.782C177.259 416.481 183.161 416.481 185.028 418.168C186.889 419.862 190.933 423.244 190.933 424.934C190.933 426.621 192.797 429.163 192.797 426.21C192.797 423.244 194.347 424.091 196.834 426.21C199.321 428.328 202.745 427.477 203.364 425.362C203.981 423.244 208.646 420.71 210.2 422.4C211.753 424.091 212.375 425.362 214.24 422.824C216.101 420.278 220.452 420.706 221.075 423.244C221.691 425.786 223.867 426.21 225.738 426.21C227.599 426.21 227.913 430.015 229.149 429.167C230.397 428.328 230.086 424.095 231.639 424.511C233.195 424.934 234.437 427.477 236.921 427.477C239.408 427.477 241.27 426.625 241.27 424.095C241.27 421.557 240.958 417.328 239.408 417.328C237.858 417.328 236.302 415.214 234.437 415.214C232.573 415.214 230.708 410.977 232.573 410.134C234.437 409.295 237.544 407.176 236.921 405.058C236.302 402.947 235.682 398.714 238.163 398.295C240.65 397.871 245.935 397.871 245.618 396.604C245.31 395.329 240.339 394.486 239.408 392.375C238.474 390.257 238.163 385.181 239.097 384.337C240.034 383.486 243.137 384.757 245.004 383.914C246.866 383.062 250.909 385.181 253.396 382.639C255.877 380.105 261.162 379.677 263.954 379.677C266.755 379.677 268.928 377.135 271.107 376.715C273.282 376.291 279.498 375.029 281.045 374.173C282.605 373.334 290.987 371.647 291.301 369.525C291.613 367.41 298.292 365.715 300.001 366.779C301.707 367.83 303.886 368.681 305.439 367.83C306.989 366.991 310.254 369.309 309.943 371.647C309.632 373.969 311.343 376.503 311.188 378.406C311.026 380.321 309.476 380.952 310.407 382.427C311.343 383.91 315.536 382.851 316.775 380.952C318.023 379.045 319.418 381.795 319.418 383.27C319.418 384.749 321.435 385.812 321.435 383.91C321.435 381.995 323.928 383.27 324.703 384.537C325.481 385.812 328.435 383.058 328.435 385.173C328.435 387.287 324.083 388.978 325.948 391.3C327.809 393.63 328.895 388.55 331.23 389.613C333.564 390.677 336.664 386.016 338.843 385.385C341.022 384.749 343.347 381.995 345.209 380.516C347.076 379.045 351.116 379.465 349.874 381.156C348.626 382.846 347.232 386.016 351.897 388.342C356.557 390.677 361.839 402.943 364.787 409.07C367.738 415.21 370.539 426.206 372.086 426.206C373.645 426.206 374.109 420.706 376.132 420.074C378.152 419.439 379.391 424.723 381.567 425.358C383.742 425.99 386.693 427.684 388.402 426.833C390.111 425.99 393.992 423.028 395.393 424.087C396.794 425.146 398.655 425.146 399.903 429.159C401.139 433.176 403.009 434.032 404.251 434.032C405.487 434.032 405.754 435.93 405.754 437.625C405.754 439.315 408.031 441.572 409.273 441.572C410.515 441.572 413.831 440.998 414.866 440.155C415.899 439.315 417.153 438.476 417.353 440.444C417.56 442.416 419.424 445.516 420.666 445.516C421.908 445.516 424.392 446.938 424.599 445.516C424.808 444.106 428.121 443.263 429.363 442.978C430.608 442.697 434.962 441.568 435.785 439.03C436.614 436.496 440.134 436.496 441.178 434.802C442.205 433.115 445.107 432.268 445.73 430.573C446.355 428.882 450.078 429.163 450.5 427.75C450.913 426.34 454.017 426.063 455.468 426.617C456.914 427.2 464.174 429.159 465.2 428.886C466.239 428.605 466.448 433.962 467.481 434.239C468.525 434.525 472.251 438.468 473.284 437.348C474.313 436.215 476.806 435.079 478.874 436.765C480.948 438.468 483.022 440.725 483.842 438.749C484.671 436.765 489.019 435.93 489.648 434.802C490.267 433.669 490.89 430.292 489.848 429.155C488.819 428.039 487.783 423.517 487.361 421.26C486.948 419.003 489.848 418.441 490.267 416.469C490.677 414.501 493.17 414.212 493.996 413.083C494.822 411.959 495.028 409.421 496.483 409.979C497.928 410.549 501.035 411.955 501.657 412.802C502.28 413.646 504.56 414.212 506.006 414.212C507.46 414.212 509.737 415.898 511.186 417.027C512.637 418.151 517.198 418.151 518.021 419.846C518.85 421.537 517.812 426.332 518.85 428.031C519.883 429.717 522.373 433.38 523.199 432.536C524.025 431.689 527.966 435.36 529.417 435.066C530.863 434.793 533.14 431.689 534.382 431.689C535.627 431.689 539.563 430.279 540.805 430.565C542.044 430.834 546.604 433.107 547.227 432.536C547.846 431.966 551.985 432.818 552.614 434.512C553.23 436.199 558.414 436.199 558.414 438.175C558.414 440.138 561.31 441.275 562.139 443.524C562.971 445.789 569.807 444.379 571.055 445.789C572.294 447.194 580.167 446.922 580.374 445.789C580.577 444.66 588.035 444.094 589.484 442.681C590.938 441.271 594.87 441.841 595.083 439.865C595.283 437.885 599.012 436.484 600.67 434.789C602.328 433.103 608.957 433.372 609.373 435.36C609.78 437.331 613.721 437.886 615.379 437.046C617.037 436.199 621.386 437.331 622.008 439.303C622.631 441.275 627.598 442.408 628.846 441.841C630.088 441.275 634.021 437.336 635.469 437.046C636.921 436.753 638.989 434.789 638.579 432.818C638.163 430.834 641.482 425.207 641.892 422.95C642.305 420.689 645.207 414.493 646.243 413.918C647.278 413.356 649.559 410.818 649.346 409.128C649.14 407.437 648.52 402.357 647.278 402.357C646.036 402.357 643.759 402.646 646.656 397.276C649.556 391.923 654.739 393.341 655.568 393.341C656.388 393.341 663.023 391.076 665.92 392.208C668.823 393.341 670.684 391.65 673.791 393.899C676.897 396.152 681.251 395.309 682.287 397.276C683.325 399.26 687.464 400.951 686.845 404.332C686.219 407.718 689.122 405.746 690.155 413.075C691.196 420.412 693.674 420.97 694.294 424.352C694.919 427.737 698.232 433.946 697.822 435.918C697.403 437.886 696.996 440.986 700.509 441.275C704.038 441.556 706.522 445.223 707.351 444.66C708.18 444.094 712.315 446.066 714.389 448.885C716.463 451.704 719.57 450.303 719.366 453.407C719.154 456.503 721.027 459.033 720.812 461.576C720.605 464.114 724.753 465.808 727.65 465.246C730.547 464.676 732.618 466.656 733.863 463.262C735.105 459.881 739.25 461.29 740.698 459.881C742.143 458.479 746.504 456.776 746.291 461.857C746.079 466.933 748.566 468.057 746.495 469.752C744.424 471.439 743.388 478.776 742.766 481.88C742.144 484.984 739.034 485.828 738.624 489.209C738.205 492.591 735.305 492.876 735.305 495.414C735.305 497.952 731.169 497.39 729.092 495.414C727.03 493.438 724.957 499.08 723.299 499.08C721.638 499.08 721.844 503.871 722.254 505.851C722.679 507.823 721.641 510.357 722.679 513.747C723.233 515.559 722.892 519.01 723.167 522.86C725.696 520.375 727.976 518.533 728.994 518.533C731.582 518.533 734.171 524.6 737.071 524.73C739.974 524.877 753.124 512.891 753.222 510.919C753.333 508.947 760.997 498.934 764.619 493.715C768.24 488.496 773.013 480.886 774.875 474.963C776.018 471.312 781.087 464.24 782.329 461.429C783.571 458.61 784.397 458.32 786.681 451.696C788.955 445.076 788.955 427.725 789.682 426.592C790.413 425.472 789.994 422.514 791.029 420.681C792.065 418.848 791.544 416.318 793.618 413.91C795.689 411.523 795.276 409.405 794.761 407.563C794.24 405.738 794.86 401.644 794.342 400.377C793.827 399.102 793.926 398.543 795.168 397.562C796.413 396.584 794.342 394.034 792.582 392.901C790.82 391.777 788.542 390.791 788.336 388.11C788.126 385.429 785.13 382.191 782.838 382.464C780.564 382.753 776.317 380.781 776.832 382.753C777.355 384.725 776.628 386.403 775.497 385.987C774.354 385.564 773.827 386.835 772.486 389.654C771.146 392.481 766.375 392.754 768.551 390.078C770.727 387.401 767.83 387.259 768.24 384.439C768.665 381.62 770.418 378.793 768.039 380.626C765.657 382.455 765.657 386.827 763.691 387.401C761.725 387.959 762.341 379.783 762.856 377.664C763.383 375.546 759.232 377.807 754.883 377.383C750.532 376.964 751.675 372.873 755.195 370.331C758.72 367.793 758.101 365.406 759.854 364.412C761.62 363.426 766.178 359.336 768.868 357.217C771.559 355.099 772.082 352.716 772.702 350.316C773.327 347.916 778.295 344.951 782.748 340.025C787.198 335.088 789.374 332.264 790.419 329.303C791.451 326.341 798.077 322.682 798.182 320.421C798.283 318.164 806.052 312.526 811.334 311.112C816.623 309.703 825.005 311.536 826.561 313.65C828.12 315.765 829.255 314.921 830.188 313.512C831.125 312.098 833.19 312.799 836.712 313.365C840.238 313.932 841.067 311.108 843.446 312.098C845.825 313.088 847.794 313.646 849.246 309.841C850.694 306.032 857.533 306.741 859.086 308.293C860.642 309.849 861.89 311.956 864.371 309.699C866.855 307.442 866.855 312.66 869.234 313.088C871.622 313.512 870.063 316.327 867.992 316.046C865.924 315.765 863.329 317.455 865.715 319.293C868.1 321.118 870.895 317.598 872.762 317.875C874.621 318.16 877.521 318.441 880.106 316.184C882.704 313.927 883.425 318.018 885.08 316.042C886.738 314.07 890.467 313.508 892.334 313.646C894.196 313.789 892.646 310.685 889.536 310.685C886.427 310.685 886.529 308.432 889.016 302.647C891.5 296.874 896.267 293.765 899.269 290.246C902.276 286.73 904.446 288.42 904.446 286.155C904.446 283.902 905.894 277.555 908.178 277.421C910.452 277.27 916.147 278.688 919.676 276.003C923.192 273.322 922.881 277.983 924.338 278.688C925.781 279.388 927.756 274.598 929.408 276.003C931.072 277.421 926.924 280.798 925.99 284.88C925.056 288.974 928.166 287.43 929.926 288.559C931.682 289.687 927.642 291.374 928.064 292.498C928.471 293.631 931.994 293.631 936.554 287.43C941.112 281.226 945.254 279.535 948.154 279.959C951.057 280.383 949.393 276.431 949.603 270.654C949.809 264.873 958.715 263.178 961.615 264.873C964.515 266.564 964.309 268.116 961.51 267.126C958.715 266.14 956.127 269.521 956.228 274.316C956.339 279.116 953.741 280.66 955.094 282.501C956.438 284.326 953.119 284.75 953.02 286.734C952.918 288.706 953.02 290.25 950.946 291.097C948.887 291.944 941.935 292.93 941.735 296.593C941.525 300.263 937.799 300.683 936.034 305.193C934.277 309.707 927.54 312.387 923.093 321.411C918.64 330.427 911.598 330.427 911.598 332.118C911.598 333.816 906.723 333.678 905.068 333.955C903.413 334.24 906.622 339.736 902.686 345.517C898.751 351.294 896.159 359.332 896.264 367.374C896.366 375.407 898.332 398.531 900.098 402.625C901.857 406.716 900.819 416.725 902.273 418.836C903.722 420.95 903.207 424.47 904.135 425.745C905.068 427.012 908.902 420.103 911.485 417.145C914.079 414.183 913.25 413.197 915.01 411.645C916.773 410.089 916.049 403.607 916.569 401.913C917.087 400.218 920.295 399.374 921.331 397.549C922.366 395.716 925.06 396.84 926.511 396.128C927.953 395.435 926.403 390.778 925.885 388.098C925.365 385.417 930.129 381.751 932.616 379.355C935.103 376.964 938.209 380.911 941.008 377.383C943.806 373.863 940.801 369.769 939.763 367.944C938.73 366.115 942.564 357.217 944.739 356.374C946.912 355.527 948.049 358.492 950.123 355.95C952.188 353.412 948.256 349.33 946.81 349.607C945.362 349.888 944.844 342.413 948.256 338.897C951.679 335.369 950.327 334.66 948.052 333.821C945.775 332.977 945.359 334.106 943.599 334.244C941.84 334.383 940.077 329.307 942.77 324.377C945.467 319.439 948.055 320.002 948.678 315.92C949.294 311.825 953.026 306.044 953.96 303.934C954.894 301.816 958.622 303.934 960.071 303.51C961.516 303.087 961.008 307.315 962.758 305.201C964.521 303.087 967.418 296.043 969.803 296.043C972.185 296.043 970.632 301.253 971.252 304.358C971.877 307.462 973.218 303.514 977.779 299.282C982.331 295.053 992.275 295.472 995.28 297.448C998.287 299.428 998.802 304.077 1000.46 303.51C1002.98 302.659 1000.88 298.854 1003.36 297.868C1005.85 296.886 1010.2 293.358 1013.52 290.111C1016.83 286.872 1015.89 289.272 1017.66 286.31C1019.42 283.348 1021.18 284.619 1021.7 282.648C1022.22 280.664 1026.98 277.429 1033.51 275.445C1040.03 273.473 1048.52 267.554 1048.11 265.72C1047.7 263.887 1050.59 263.04 1050.9 264.873C1051.21 266.698 1053.7 266.001 1057.12 266.983C1060.54 267.973 1062.09 269.811 1064.79 266.14C1067.48 262.469 1064.47 261.202 1064.58 258.391C1064.68 255.568 1059.91 252.606 1060.54 249.649C1061.16 246.683 1057.02 238.783 1055.77 240.34C1054.53 241.892 1051.63 239.073 1051.63 236.816C1051.63 234.559 1051.42 231.882 1049.45 233.569C1047.49 235.264 1044.17 234.416 1043.55 231.878C1042.92 229.34 1047.39 227.507 1050.49 229.206C1053.6 230.896 1052.67 232.587 1054.21 233.85C1055.77 235.125 1060.01 234.559 1062.19 233.149C1064.37 231.735 1070.48 229.059 1071.51 226.667C1072.55 224.268 1071.4 223.135 1073.48 221.73C1075.55 220.324 1074 217.359 1072.24 216.092C1070.47 214.816 1070.89 211.439 1072.75 211.439C1074.61 211.439 1074.1 208.473 1075.34 208.331C1076.59 208.188 1076.79 209.598 1079.07 208.054C1081.34 206.501 1079.17 210.441 1078.14 213.13C1077.1 215.802 1080.32 218.055 1080.62 219.615C1080.93 221.168 1085.38 221.73 1087.87 219.893C1090.36 218.067 1098.33 222.149 1098.85 224.826C1099.37 227.507 1100.51 230.754 1103.82 233.011C1107.14 235.264 1110.15 234.282 1110.76 236.392C1111.38 238.506 1112.63 239.631 1114.49 239.073C1116.35 238.506 1117.39 241.317 1118.73 239.631C1120.08 237.94 1120.81 240.621 1122.57 238.506C1124.32 236.392 1118.73 234.978 1119.46 233.292C1120.18 231.597 1121.33 234.563 1122.88 234.42C1124.44 234.286 1122.46 230.191 1123.61 229.764C1124.74 229.344 1123.81 220.887 1122.57 220.324C1121.33 219.758 1122.36 216.792 1124.74 219.192C1127.12 221.587 1130.85 221.449 1132.62 221.449C1134.38 221.449 1132.72 219.192 1130.96 218.768C1129.19 218.353 1131.27 216.369 1132.51 217.921C1133.75 219.477 1136.13 220.178 1136.34 218.487C1136.55 216.792 1137.79 213.13 1139.97 213.268C1142.11 213.443 1142.84 211.745 1140.77 210.763Z" fill="#476CB2"/>
</svg>
