<svg xmlns="http://www.w3.org/2000/svg" xmlns:xlink="http://www.w3.org/1999/xlink" width="0" height="0" style="position:absolute">
	
		<symbol id="icon-add-loading" viewBox="0 0 16 16">
			<path fill-rule="evenodd" clip-rule="evenodd" d="M13.148 4.551l-.28-.34A6.16 6.16 0 0 0 7.999 1.83 6.172 6.172 0 0 0 1.83 8 6.173 6.173 0 0 0 8 14.17a6.174 6.174 0 0 0 6.149-5.67.915.915 0 0 1 .912-.841.88.88 0 0 1 .73.364c.14.192.198.429.183.625C15.644 12.76 12.196 16 7.999 16 3.584 16 0 12.415 0 8s3.584-8 8-8a7.986 7.986 0 0 1 6.508 3.35l.002-1.323a.574.574 0 1 1 1.149 0v3.102a.575.575 0 0 1-.575.574h-3.09a.575.575 0 0 1 0-1.149l1.154-.003z" fill="#fff"></path>
		</symbol>
	
		<symbol id="icon-arrow-back" viewBox="0 0 8 12">
			<path d="M7.535 1.76L6.12.344.464 6.002l5.657 5.657 1.414-1.415-4.243-4.242 4.243-4.243z" fill="#fff"></path>
		</symbol>
	
		<symbol id="icon-arrow-next" viewBox="0 0 8 12">
			<path d="M.465 10.24l1.414 1.415 5.657-5.657L1.88.341.465 1.756l4.243 4.242-4.243 4.243z" fill="#fff"></path>
		</symbol>
	
		<symbol id="icon-benefits-park" viewBox="0 0 70 72">
			<path fill-rule="evenodd" clip-rule="evenodd" d="M.5 33.5v38h69v-38H.5zm67 2h-65v34h7.571v-26h2v26h7.572v-26h2v26h7.571v-26h2v26h7.572v-26h2v26h7.571v-26h2v26h7.572v-26h2v26H67.5v-34z" fill="#1F4899"></path><path d="M40.5.5h-11v2H34v7.62h1.997A4.006 4.006 0 1 1 30.994 14H29a6 6 0 0 0 3.913 5.625L10.47 33.652l1.06 1.696L35 20.679l23.47 14.669 1.06-1.696-22.443-14.027a5.999 5.999 0 0 0 1.246-10.614A6 6 0 0 0 36 8.084V2.5h4.5v-2z" fill="#1F4899"></path>
		</symbol>
	
		<symbol id="icon-benefits-servises" viewBox="0 0 82 62">
			<path d="M81 25.536L47.169 2 13.337 25.536m4.412-2.943v9.31m59.375-9.061V60.9m-30.81-.906H61.72v-11.78H46.314v11.78zm15.405 0h15.405v-11.78H61.719v11.78zm0-11.78h15.405v-11.78H61.719v11.78zm-15.405 0H61.72v-11.78H46.314v11.78z" stroke="#1F4899" stroke-width="2"></path><path clip-rule="evenodd" d="M53.563 36.434h15.405v-11.78H53.563v11.78zM24.566 58.182h15.405v-11.78H24.566v11.78z" stroke="#1F4899" stroke-width="2"></path><path d="M42.69 58.182H24.566V35.528h-2.718" stroke="#1F4899" stroke-width="2"></path><path d="M1.682 51.904v-2.729a2.73 2.73 0 0 1 2.73-2.73h5.583l2.606 3.413h11.6v7.506H20.79m-12.966-.682a3.412 3.412 0 1 1-6.823 0 3.412 3.412 0 0 1 6.823 0z" stroke="#1F4899" stroke-width="2"></path><path d="M21.472 49.858s-1.025-8.423-6.824-12.283H7.142v8.871m6.823 10.92H7.823m-.682-19.791H5.096M20.789 56.68a3.413 3.413 0 0 1-6.824 0 3.413 3.413 0 0 1 6.824 0z" stroke="#1F4899" stroke-width="2"></path>
		</symbol>
	
		<symbol id="icon-benefits-servises-delivery" viewBox="0 0 81 82">
			<path clip-rule="evenodd" d="M66.413 77.06L54.699 57.727c-.016-.026-1.674-2.607-1.674-6.49 0-7.398 6.02-13.416 13.417-13.416S79.86 43.839 79.86 51.237a13.087 13.087 0 0 1-1.733 6.53L66.413 77.06z" stroke="#09388A" stroke-width="2"></path><path clip-rule="evenodd" d="M66.443 57.77a6.466 6.466 0 0 1-6.46-6.462 6.466 6.466 0 0 1 6.46-6.46 6.467 6.467 0 0 1 6.46 6.46c0 3.563-2.982 6.46-6.46 6.46v.002zM11.106 30.623L2.264 16.03C2.25 16.011 1 14.061 1 11.13 1 5.544 5.544 1 11.129 1c5.585-.001 10.13 4.543 10.13 10.129a9.872 9.872 0 0 1-1.308 4.93l-8.845 14.565z" stroke="#09388A" stroke-width="2"></path><path clip-rule="evenodd" d="M11.13 16.06a4.883 4.883 0 0 1-4.878-4.88 4.883 4.883 0 0 1 4.878-4.876 4.883 4.883 0 0 1 4.877 4.877c0 2.69-2.251 4.878-4.877 4.878v.001z" stroke="#09388A" stroke-width="2"></path><path d="M10.979 34.736H36.68a8.224 8.224 0 1 1 0 16.45H25.886c-8.233 0-14.907 6.674-14.907 14.907S17.652 81 25.886 81h40.609" stroke="#09388A" stroke-width="2"></path>
		</symbol>
	
		<symbol id="icon-benefits-servises-price" viewBox="0 0 80 80">
			<path d="M50.736 42.713c13.374 0 24.215-4.819 24.215-10.762 0-5.944-10.841-10.762-24.215-10.762-13.373 0-24.213 4.818-24.213 10.762 0 5.944 10.84 10.762 24.213 10.762z" stroke="#1F4899" stroke-width="2" stroke-linecap="round" stroke-linejoin="round"></path><path d="M26.523 31.953V64.24C26.523 70.157 37.284 75 50.736 75c13.453 0 24.215-4.843 24.215-10.761V31.953" stroke="#1F4899" stroke-width="2" stroke-linecap="round" stroke-linejoin="round"></path><path d="M74.95 48.091c0 5.92-10.761 10.762-24.214 10.762-13.452 0-24.213-4.843-24.213-10.762M50.2 10.428a36.429 36.429 0 0 0-20.986-5.38C15.816 5.047 5 9.89 5 15.808c0 3.175 3.12 6.027 8.071 8.071" stroke="#1F4899" stroke-width="2" stroke-linecap="round" stroke-linejoin="round"></path><path d="M13.071 56.166C8.121 54.122 5 51.27 5 48.096V15.81M13.071 40.025C8.121 37.98 5 35.128 5 31.953" stroke="#1F4899" stroke-width="2" stroke-linecap="round" stroke-linejoin="round"></path>
		</symbol>
	
		<symbol id="icon-benefits-servises-save" viewBox="0 0 80 80">
			<path clip-rule="evenodd" d="M39.598 5C36.819 8.992 18.278 17.177 11 17.177V46.1C11 59.695 37.994 74.572 39.581 75c1.589-.43 28.581-16.344 28.581-27.379V17.179c-7.939 0-25.785-8.186-28.564-12.178V5z" stroke="#09388A" stroke-width="2" stroke-linejoin="round"></path><path d="M30.361 37.269l9.22 7.376L53.223 29.33" stroke="#09388A" stroke-width="2" stroke-linejoin="round"></path>
		</symbol>
	
		<symbol id="icon-benefits-terminal" viewBox="0 0 67 72">
			<path d="M42.055 9.25c-2.147 2.106-4.5 4.25-5.03 4.465-.155.063-.532.162-1.32.134a2.896 2.896 0 0 0-2.88 2.127c-.398 1.447-.678 2.032-.81 2.251-.151.251-.666.386-1.122.503-.693.18-1.854.482-1.854 1.665 0 .132-.02.294-.042.476-.097.83-.243 2.085.637 3.074.723.811 1.94 1.206 3.719 1.206 2.274 0 3.251-3.105 5.442-3.51 2.18-.403 3.621-2.979 4.487-2.691 1.969.648 10.568-.317 12.564-1.795m9.872 19.915c-3.717 8.003-9.872 5.384-16.154 8.077-.788.337-9.082 5.532-8.974 6.282.069.479-4.503 7.002-3.59 8.077.563.661 11.952-2.853 10.982-1.394-.817 1.227-.799 2.329-.638 3.036.224.994.83 1.742 1.33 2.042.288.173 1.503 1.109 2.559 1.936M4.69 27.198c.898 0 10.364-1.068 11.667 0 .734.601 1.244 13.57 1.127 14.285-.404.37-2.057 1.16-3.17 1.692-1.11.531-2.16 1.032-2.82 1.452-.53.337-.873.966-1.024 1.873-.417 2.507.645 6.91 1.713 8.245.816 1.02 3.155 1.847 6.629 2.99 1.512.498 2.94.97 3.601 1.325.954.513 3.401 3.116 5.187 5.017 2.816 2.994 3.034 5.66 3.117 6.198M6.707 23.608A31.398 31.398 0 0 0 2.479 39.38C2.48 56.815 16.664 71 34.1 71c12.83 0 24.688-8.106 29.41-20.016a31.555 31.555 0 0 0 2.208-11.603 31.655 31.655 0 0 0-6.327-18.94C53.502 12.606 44.231 7.76 34.1 7.76a31.617 31.617 0 0 0-18.637 6.092" stroke="#1F4899" stroke-width="2"></path><path d="M11.872 26.128V8.18H2l2.692 3.59L2 15.36h8.974m34.103 33.205V30.615h-9.872l2.693 3.59-2.693 3.59h8.974m1.795-18.846V1h9.872l-2.692 3.59 2.692 3.59h-8.974" stroke="#1F4899" stroke-width="2"></path>
		</symbol>
	
		<symbol id="icon-block-phone" viewBox="0 0 16 16">
			<path d="M5.156.781C5.031.47 4.833.25 4.563.125a1.502 1.502 0 0 0-.907-.094l-2.75.75C.344.99.042 1.396 0 2c.02 2.604.656 4.958 1.906 7.063a14.197 14.197 0 0 0 5.032 5.03C9.041 15.344 11.396 15.98 14 16c.604-.042 1.01-.344 1.219-.906l.75-2.75a1.502 1.502 0 0 0-.094-.906c-.125-.271-.344-.47-.656-.594l-3-1.25c-.563-.188-1.042-.063-1.438.375L9.531 11.5a10.843 10.843 0 0 1-2.969-2.063A10.844 10.844 0 0 1 4.5 6.47l1.531-1.25c.438-.396.563-.875.375-1.438l-1.25-3z"></path>
		</symbol>
	
		<symbol id="icon-block-phone-dark" viewBox="0 0 16 16">
			<path d="M5.156.781C5.031.47 4.833.25 4.563.125a1.502 1.502 0 0 0-.907-.094l-2.75.75C.344.99.042 1.396 0 2c.02 2.604.656 4.958 1.906 7.063a14.197 14.197 0 0 0 5.032 5.03C9.041 15.344 11.396 15.98 14 16c.604-.042 1.01-.344 1.219-.906l.75-2.75a1.503 1.503 0 0 0-.094-.906c-.125-.271-.344-.47-.656-.594l-3-1.25c-.563-.188-1.042-.063-1.438.375L9.531 11.5a10.843 10.843 0 0 1-2.969-2.063A10.844 10.844 0 0 1 4.5 6.47l1.531-1.25c.438-.396.563-.875.375-1.438l-1.25-3z"></path>
		</symbol>
	
		<symbol id="icon-change-language" viewBox="0 0 12 8">
			<path d="M10.24 7.535l1.415-1.414L5.998.464.341 6.121l1.415 1.414 4.242-4.243 4.243 4.243z"></path>
		</symbol>
	
		<symbol id="icon-change-language-dark" viewBox="0 0 12 8">
			<path d="M1.76.465L.346 1.879l5.657 5.657 5.656-5.657L10.245.465 6.003 4.708 1.76.465z"></path>
		</symbol>
	
		<symbol id="icon-country-cn" viewBox="0 0 28 20">
			<path fill="#fff" d="M0 0h28v20H0z"></path><mask id="a" style="mask-type:alpha" maskUnits="userSpaceOnUse" x="0" y="0" width="28" height="20"><path fill="#fff" d="M0 0h28v20H0z"></path></mask><g mask="url(#a)"><path fill="#F1361D" d="M0 0h28v20H0z"></path><path fill-rule="evenodd" clip-rule="evenodd" d="M10.073 3.1l.968.166.726.661.165-.968.662-.726-.968-.166-.727-.661-.165.968-.661.727zm2.594 3.388l.839-.51.982.022-.51-.84L14 4.18l-.84.51-.981-.022.51.839-.022.982zm-1.139 5.483l-.82.54-.012-.983-.54-.82.982-.012.821-.54.012.982.54.821-.983.012zm.713-2.54l.977-.108.88.436-.108-.977.435-.88-.976.108-.88-.436.108.977-.436.88zM6.667 8.227L4.316 9.903l.867-2.754-2.32-1.718 2.887-.026.917-2.738.917 2.738 2.887.026-2.32 1.718.867 2.754-2.351-1.676z" fill="#FFDC42"></path></g>
		</symbol>
	
		<symbol id="icon-country-in" viewBox="0 0 28 20">
			<path fill="#fff" stroke="#F5F5F5" stroke-width=".5" d="M.25.25h27.5v19.5H.25z"></path><mask id="a" style="mask-type:alpha" maskUnits="userSpaceOnUse" x="0" y="0" width="28" height="20"><path fill="#fff" stroke="#fff" stroke-width=".5" d="M.25.25h27.5v19.5H.25z"></path></mask><g mask="url(#a)"><path fill-rule="evenodd" clip-rule="evenodd" d="M0 6.667h28V0H0v6.667z" fill="#FFA44A"></path><path fill-rule="evenodd" clip-rule="evenodd" d="M0 20h28v-6.667H0V20z" fill="#1A9F0B"></path><path d="M14 12.333a2.333 2.333 0 1 0 0-4.666 2.333 2.333 0 0 0 0 4.666z" fill="#181A93" fill-opacity=".15" stroke="#181A93" stroke-width=".667"></path><path fill-rule="evenodd" clip-rule="evenodd" d="M14 10.667a.667.667 0 1 0 0-1.334.667.667 0 0 0 0 1.334z" fill="#181A93"></path></g>
		</symbol>
	
		<symbol id="icon-country-ir" viewBox="0 0 28 20">
			<path fill="#fff" stroke="#F5F5F5" stroke-width=".5" d="M.25.25h27.5v19.5H.25z"></path><mask id="a" style="mask-type:alpha" maskUnits="userSpaceOnUse" x="0" y="0" width="28" height="20"><path fill="#fff" stroke="#fff" stroke-width=".5" d="M.25.25h27.5v19.5H.25z"></path></mask><g mask="url(#a)"><path fill-rule="evenodd" clip-rule="evenodd" d="M0 6.667h28V0H0v6.667z" fill="#38BB56"></path><path fill-rule="evenodd" clip-rule="evenodd" d="M0 20h28v-6.667H0V20z" fill="#DE1B27"></path><path fill-rule="evenodd" clip-rule="evenodd" d="M1.667 5.333a.333.333 0 0 0-.334.334v.666c0 .184.15.334.334.334h.666c.184 0 .334-.15.334-.334v-.666a.333.333 0 0 0-.334-.334h-.666zm2.666 0A.333.333 0 0 0 4 5.667v.666c0 .184.15.334.333.334H5c.184 0 .333-.15.333-.334v-.666A.333.333 0 0 0 5 5.333h-.667zm2.334.334c0-.184.149-.334.333-.334h.667c.184 0 .333.15.333.334v.666c0 .184-.15.334-.333.334H7a.333.333 0 0 1-.333-.334v-.666zm3-.334a.333.333 0 0 0-.334.334v.666c0 .184.15.334.334.334h.666c.184 0 .334-.15.334-.334v-.666a.333.333 0 0 0-.334-.334h-.666zM12 5.667c0-.184.15-.334.333-.334H13c.184 0 .333.15.333.334v.666c0 .184-.149.334-.333.334h-.667A.333.333 0 0 1 12 6.333v-.666zm3-.334a.333.333 0 0 0-.333.334v.666c0 .184.149.334.333.334h.667c.184 0 .333-.15.333-.334v-.666a.333.333 0 0 0-.333-.334H15zm2.333.334c0-.184.15-.334.334-.334h.666c.184 0 .334.15.334.334v.666c0 .184-.15.334-.334.334h-.666a.333.333 0 0 1-.334-.334v-.666zm3-.334a.333.333 0 0 0-.333.334v.666c0 .184.15.334.333.334H21c.184 0 .333-.15.333-.334v-.666A.333.333 0 0 0 21 5.333h-.667zm2.334.334c0-.184.149-.334.333-.334h.667c.184 0 .333.15.333.334v.666c0 .184-.15.334-.333.334H23a.333.333 0 0 1-.333-.334v-.666zm3-.334a.333.333 0 0 0-.334.334v.666c0 .184.15.334.334.334h.666c.184 0 .334-.15.334-.334v-.666a.333.333 0 0 0-.334-.334h-.666zM1.333 13.667c0-.184.15-.334.334-.334h.666c.184 0 .334.15.334.334v.666c0 .184-.15.334-.334.334h-.666a.333.333 0 0 1-.334-.334v-.666zm3-.334a.333.333 0 0 0-.333.334v.666c0 .184.15.334.333.334H5c.184 0 .333-.15.333-.334v-.666A.333.333 0 0 0 5 13.333h-.667zm2.334.334c0-.184.149-.334.333-.334h.667c.184 0 .333.15.333.334v.666c0 .184-.15.334-.333.334H7a.333.333 0 0 1-.333-.334v-.666zm3-.334a.333.333 0 0 0-.334.334v.666c0 .184.15.334.334.334h.666c.184 0 .334-.15.334-.334v-.666a.333.333 0 0 0-.334-.334h-.666zm2.333.334c0-.184.15-.334.333-.334H13c.184 0 .333.15.333.334v.666c0 .184-.149.334-.333.334h-.667a.333.333 0 0 1-.333-.334v-.666zm3-.334a.333.333 0 0 0-.333.334v.666c0 .184.149.334.333.334h.667c.184 0 .333-.15.333-.334v-.666a.333.333 0 0 0-.333-.334H15zm2.333.334c0-.184.15-.334.334-.334h.666c.184 0 .334.15.334.334v.666c0 .184-.15.334-.334.334h-.666a.333.333 0 0 1-.334-.334v-.666zm3-.334a.333.333 0 0 0-.333.334v.666c0 .184.15.334.333.334H21c.184 0 .333-.15.333-.334v-.666a.333.333 0 0 0-.333-.334h-.667zm2.334.334c0-.184.149-.334.333-.334h.667c.184 0 .333.15.333.334v.666c0 .184-.15.334-.333.334H23a.333.333 0 0 1-.333-.334v-.666zm3-.334a.333.333 0 0 0-.334.334v.666c0 .184.15.334.334.334h.666c.184 0 .334-.15.334-.334v-.666a.333.333 0 0 0-.334-.334h-.666z" fill="#fff" fill-opacity=".5"></path><mask id="b" fill="#fff"><path fill-rule="evenodd" clip-rule="evenodd" d="M12.653 8.521a2 2 0 1 0 2.716.02"></path></mask><path d="M12.204 8.028a2.662 2.662 0 0 0-.87 1.972h1.333c0-.39.167-.741.435-.986l-.898-.986zM11.335 10A2.667 2.667 0 0 0 14 12.667v-1.334A1.333 1.333 0 0 1 12.667 10h-1.334zM14 12.667A2.667 2.667 0 0 0 16.667 10h-1.334c0 .736-.597 1.333-1.333 1.333v1.334zM16.667 10c0-.767-.325-1.458-.842-1.944l-.912.972c.26.244.42.589.42.972h1.334z" fill="#D80915" mask="url(#b)"></path><rect x="13.333" y="9.333" width="1.333" height="2.667" rx=".667" fill="#D80915"></rect></g>
		</symbol>
	
		<symbol id="icon-country-ru" viewBox="0 0 18 14">
			<path fill="#fff" d="M0 .571h18v12.857H0z"></path><mask id="a" style="mask-type:alpha" maskUnits="userSpaceOnUse" x="0" y="0" width="18" height="14"><path fill="#fff" stroke="#fff" stroke-width=".5" d="M.25.821h17.5v12.357H.25z"></path></mask><g mask="url(#a)" fill-rule="evenodd" clip-rule="evenodd"><path d="M0 9.143h18V4.857H0v4.286z" fill="#0C47B7"></path><path d="M0 13.428h18V9.143H0v4.285z" fill="#E53B35"></path></g>
		</symbol>
	
		<symbol id="icon-country-tr" viewBox="0 0 28 20">
			<path fill="#fff" d="M0 0h28v20H0z"></path><mask id="a" style="mask-type:alpha" maskUnits="userSpaceOnUse" x="0" y="0" width="28" height="20"><path fill="#fff" d="M0 0h28v20H0z"></path></mask><g mask="url(#a)"><path fill="#E92434" d="M0 0h28v20H0z"></path><path fill-rule="evenodd" clip-rule="evenodd" d="M19.02 10.768l-1.224 1.485.084-1.923-1.791-.706 1.854-.515.118-1.921 1.063 1.605 1.864-.482-1.198 1.507 1.034 1.624-1.803-.674z" fill="#fff"></path><path fill-rule="evenodd" clip-rule="evenodd" d="M17.403 13.684a6 6 0 1 1 0-7.368 5.21 5.21 0 0 0-3.07-.983c-2.761 0-5 2.09-5 4.667s2.239 4.667 5 4.667a5.21 5.21 0 0 0 3.07-.983z" fill="#fff"></path></g>
		</symbol>
	
		<symbol id="icon-dewelopment" viewBox="0 0 52 11">
			<g clip-path="url(#a)" fill="#737780"><path d="M13.424 6.353V.252h2.191v6.025c0 1.415.823 2.388 2.39 2.388 1.567 0 2.373-.974 2.373-2.388V.252h2.207v6.086c0 2.526-1.492 4.245-4.58 4.245-3.09 0-4.58-1.735-4.58-4.23zM27.791 8.97l1.17-1.644a4.448 4.448 0 0 0 3.227 1.37c1.187 0 1.765-.548 1.765-1.127 0-1.795-5.843-.563-5.843-4.382C28.11 1.5 29.57.1 31.96.1c1.613 0 2.951.486 3.956 1.415l-1.203 1.582c-.82-.76-1.916-1.11-2.951-1.11-.928 0-1.445.41-1.445 1.02 0 1.612 5.827.532 5.827 4.32 0 1.857-1.324 3.257-4.062 3.257-1.947 0-3.347-.655-4.291-1.614zM41.212 5.292C41.212 2.21 43.467 0 46.551 0c3.098 0 5.353 2.209 5.353 5.292 0 3.083-2.255 5.292-5.353 5.292-3.084 0-5.339-2.209-5.339-5.292zm8.452 0c0-1.916-1.227-3.358-3.113-3.358-1.887 0-3.099 1.442-3.099 3.358 0 1.903 1.212 3.36 3.099 3.36 1.886 0 3.113-1.457 3.113-3.36zM5.935 6.535c1.095-.258 2.222-1.217 2.222-3.012 0-1.887-1.293-3.271-3.409-3.271H0v1.901h4.429c.867 0 1.521.517 1.521 1.37 0 .851-.655 1.37-1.521 1.37H0V10.4h2.16V6.795h1.584L5.737 10.4h2.48L5.936 6.535z"></path></g><defs><clipPath id="a"><path fill="#fff" d="M0 0h52v11H0z"></path></clipPath></defs>
		</symbol>
	
		<symbol id="icon-download" viewBox="0 0 16 17">
			<path d="M8 14.5l-5.333-6h4v-8h2.667v8h4L8 14.5zm6-.667v1.334H2v-1.334H.667V16.5h14.667v-2.667H14z" fill="#1F4899"></path>
		</symbol>
	
		<symbol id="icon-footer-contact-email" viewBox="0 0 16 13">
			<path d="M8 6.975L.01.5h15.98L8 6.975zM4.383 5.761L0 2.208v8.334l4.383-4.781zm7.234 0L16 10.542V2.208l-4.383 3.553zm-1.038.84L8 8.691l-2.579-2.09L.015 12.5h15.97L10.58 6.601z" fill="#1F4899"></path>
		</symbol>
	
		<symbol id="icon-footer-contact-phone" viewBox="0 0 16 17">
			<path d="M5.156 1.281C5.031.97 4.833.75 4.563.625a1.502 1.502 0 0 0-.907-.094l-2.75.75C.344 1.49.042 1.896 0 2.5c.02 2.604.656 4.958 1.906 7.063a14.197 14.197 0 0 0 5.032 5.03C9.041 15.844 11.396 16.48 14 16.5c.604-.042 1.01-.344 1.219-.906l.75-2.75a1.503 1.503 0 0 0-.094-.906c-.125-.271-.344-.47-.656-.594l-3-1.25c-.563-.188-1.042-.063-1.438.375L9.531 12a10.843 10.843 0 0 1-2.969-2.063A10.844 10.844 0 0 1 4.5 6.97l1.531-1.25c.438-.396.563-.875.375-1.438l-1.25-3z" fill="#1F4899"></path>
		</symbol>
	
		<symbol id="icon-footer-contact-place" viewBox="0 0 16 16">
			<path d="M0 6l16-6-5.99 16L8 8 0 6z" fill="#1F4899"></path>
		</symbol>
	
		<symbol id="icon-language-cn" viewBox="0 0 19 14">
			<path fill="#fff" d="M.5.571h18v12.857H.5z"></path><mask id="a" style="mask-type:alpha" maskUnits="userSpaceOnUse" x="0" y="0" width="19" height="14"><path fill="#fff" d="M.5.571h18v12.857H.5z"></path></mask><g mask="url(#a)"><path fill="#F1361D" d="M.5.571h18v12.857H.5z"></path><path fill-rule="evenodd" clip-rule="evenodd" d="M6.975 2.565l.623.106.467.425.106-.622.425-.467-.622-.107-.467-.425-.107.623-.425.467zm1.668 2.177l.54-.328.63.015-.328-.54.015-.631-.54.328-.63-.015.327.54-.014.631zM7.91 8.267l-.528.347-.007-.632-.347-.527.631-.008.528-.347.008.632.346.527-.631.008zm.458-1.633l.628-.07.566.28-.07-.627.28-.566-.627.07-.566-.28.07.627-.28.566zM4.786 5.86L3.274 6.937l.558-1.77L2.34 4.062l1.856-.016.59-1.76.59 1.76 1.855.016L5.74 5.167l.558 1.77L4.786 5.86z" fill="#FFDC42"></path></g>
		</symbol>
	
		<symbol id="icon-language-gb" viewBox="0 0 19 14">
			<path fill="#fff" d="M.5.571h18v12.857H.5z"></path><mask id="a" style="mask-type:alpha" maskUnits="userSpaceOnUse" x="0" y="0" width="19" height="14"><path fill="#fff" d="M.5.571h18v12.857H.5z"></path></mask><g mask="url(#a)"><path fill="#0A17A7" d="M.5.571h18v12.857H.5z"></path><path fill-rule="evenodd" clip-rule="evenodd" d="M-.324-.66l7.681 5.18V-.285h4.286v4.807l7.681-5.182.959 1.422-6.073 4.096h4.29v4.286h-4.29l6.073 4.096-.959 1.421-7.681-5.18v4.806H7.357V9.479l-7.681 5.182-.96-1.422L4.79 9.143H.5V4.857h4.29L-1.283.761l.959-1.422z" fill="#fff"></path><path d="M12.5 4.642l8.143-5.356M13.365 9.377l7.3 4.92M5.646 4.628l-7.613-5.13M6.472 9.317l-8.439 5.597" stroke="#DB1F35" stroke-width=".667" stroke-linecap="round"></path><path fill-rule="evenodd" clip-rule="evenodd" d="M.5 8.286h7.714v5.143h2.572V8.286H18.5V5.714h-7.714V.571H8.214v5.143H.5v2.572z" fill="#E6273E"></path></g>
		</symbol>
	
		<symbol id="icon-language-ru" viewBox="0 0 28 20">
			<path fill="#fff" stroke="#F5F5F5" stroke-width=".5" d="M.25.25h27.5v19.5H.25z"></path><mask id="a" style="mask-type:alpha" maskUnits="userSpaceOnUse" x="0" y="0" width="28" height="20"><path fill="#fff" stroke="#fff" stroke-width=".5" d="M.25.25h27.5v19.5H.25z"></path></mask><g mask="url(#a)" fill-rule="evenodd" clip-rule="evenodd"><path d="M0 13.333h28V6.667H0v6.666z" fill="#0C47B7"></path><path d="M0 20h28v-6.667H0V20z" fill="#E53B35"></path></g>
		</symbol>
	
		<symbol id="icon-list-link-calculation" viewBox="0 0 48 48">
			<path d="M22.192 19.636H11.283m10.847 3.74H11.283M22.13 27.18H11.283" stroke="#fff" stroke-width="1.788" stroke-linecap="round"></path><path d="M39.584 16.831v21.32M37.901 16.27h3.429M37.9 38.712h3.429M32.104 8.227H7.979m24.125-2.306v4.052M7.979 5.922v4.052m26.743 3.054H6.234v28.738h28.488V13.028z" stroke="#fff" stroke-width="1.788" stroke-linecap="round" stroke-linejoin="round"></path>
		</symbol>
	
		<symbol id="icon-list-link-consultation" viewBox="0 0 48 48">
			<path d="M44.385 21.506l-4.426-4.239v-5.236c0-1.808-1.497-3.304-3.304-3.304h-5.549L27.866 5.61a.678.678 0 0 0-.935 0l-3.242 3.117h-8.29c-1.808 0-3.304 1.496-3.304 3.304v2.68c0 .375.311.686.685.686h1.995v1.87l-4.488 4.24a.707.707 0 0 0-.187.498v19.886c0 .374.311.686.685.686h33.164a.692.692 0 0 0 .686-.686V22.005c-.063-.187-.125-.374-.25-.498zm-4.489-2.368l2.307 2.244h-2.307v-2.244zm0 3.553h1.933l-1.933 1.371v-1.371zm-5.299-7.98v-2.68a1.97 1.97 0 0 1 1.995-1.995 1.97 1.97 0 0 1 1.995 1.995v12.966l-11.283 8.104-11.283-8.104v-9.6h17.953c.374 0 .623-.311.623-.685zm-7.293-7.73l1.808 1.746h-3.616l1.808-1.745zm-13.901 7.045V12.03a1.97 1.97 0 0 1 1.995-1.995h18.576a3.22 3.22 0 0 0-.686 1.995v1.995H13.403zm1.309 5.112v2.244h-2.307l2.307-2.244zm0 3.553v1.371l-1.933-1.371h1.933zm-3.304.623l12.841 9.226-12.841 8.166V23.314zm1.62 17.953l12.344-7.916 1.558 1.122c.25.187.561.187.748 0l1.558-1.122 12.406 7.854H13.029v.063zm30.234-.56L30.421 32.54l12.841-9.226v17.392z" fill="#fff"></path><path d="M20.01 21.32h13.278v1.308H20.01V21.32zm0-2.619h13.278v1.31H20.01V18.7zm0 5.299h13.278v1.309H20.01v-1.31zM3.43 14.026h6.607v1.309H3.43v-1.31zm1.994 2.68h7.294v1.31H5.423v-1.31z" fill="#fff"></path>
		</symbol>
	
		<symbol id="icon-list-link-track" viewBox="0 0 48 48">
			<path d="M14.961 11.096c0-2.12-1.745-3.865-3.865-3.865s-3.865 1.745-3.865 3.865 1.746 3.865 3.865 3.865c2.182 0 3.865-1.683 3.865-3.865zm-6.42 0c0-1.434 1.184-2.556 2.555-2.556 1.434 0 2.556 1.184 2.556 2.556 0 1.434-1.184 2.556-2.556 2.556-.686 0-1.309-.25-1.808-.748-.498-.437-.748-1.122-.748-1.808z" fill="#fff"></path><path d="M36.904 22.69c-3.491-.061-6.359 2.744-6.42 6.235 0 2.742 1.807 5.984 3.428 8.29-1.746.437-2.93 1.247-3.304 2.245H10.473a4.47 4.47 0 0 1-4.489-4.489 4.47 4.47 0 0 1 4.489-4.488h12.904a4.47 4.47 0 0 0 4.488-4.488c0-2.494-1.995-4.55-4.488-4.55h-5.922c-.374-.998-1.559-1.809-3.304-2.245 1.62-2.369 3.428-5.548 3.428-8.29-.062-3.492-2.992-6.297-6.483-6.235-3.49-.062-6.358 2.743-6.42 6.234 0 2.743 1.807 5.984 3.428 8.291-2.12.561-3.429 1.62-3.429 2.867 0 1.808 2.743 3.242 6.421 3.242 3.242 0 5.735-1.06 6.296-2.556h5.985a3.22 3.22 0 0 1 3.241 3.242 3.22 3.22 0 0 1-3.241 3.241H10.473c-3.18 0-5.798 2.619-5.798 5.798s2.619 5.797 5.798 5.797h20.072c.561 1.496 3.117 2.556 6.297 2.556 3.678 0 6.42-1.371 6.42-3.242 0-1.246-1.309-2.306-3.428-2.867 1.62-2.369 3.428-5.548 3.428-8.291 0-3.553-2.867-6.358-6.358-6.296zM5.984 10.91c.063-2.806 2.37-4.988 5.175-4.926 2.805-.062 5.111 2.182 5.173 4.925 0 3.616-3.802 8.54-5.174 10.161-1.433-1.62-5.174-6.545-5.174-10.16zM11.096 24c-3.117 0-5.174-1.122-5.174-1.933 0-.56 1.06-1.37 2.93-1.745.312.437.561.748.81 1.06h-.498a.625.625 0 0 0-.624.623c0 .312.312.624.624.624h3.865a.625.625 0 0 0 .623-.624c0-.311-.312-.623-.623-.623h-.561c.249-.312.498-.686.81-1.06 1.932.374 2.93 1.122 2.93 1.745.062.81-1.933 1.933-5.112 1.933zm30.92 16.083c0 .81-1.995 1.933-5.174 1.933-3.18 0-5.174-1.122-5.174-1.933 0-.56 1.06-1.371 2.93-1.745.311.436.56.748.81 1.06h-.561a.625.625 0 0 0-.624.623c0 .374.312.623.624.623h3.865a.625.625 0 0 0 .623-.623.625.625 0 0 0-.623-.624h-.561c.249-.311.498-.685.81-1.06 2.057.437 3.055 1.185 3.055 1.746zm-5.112-.997c-1.372-1.621-5.174-6.546-5.174-10.161A5.154 5.154 0 0 1 36.904 24a5.154 5.154 0 0 1 5.174 4.925c-.062 3.678-3.865 8.54-5.174 10.16z" fill="#fff"></path><path d="M36.904 25.31c-2.12 0-3.865 1.745-3.865 3.864 0 2.12 1.745 3.865 3.865 3.865s3.865-1.745 3.865-3.865a3.844 3.844 0 0 0-3.865-3.865zm0 6.42c-1.434 0-2.556-1.185-2.556-2.556 0-1.434 1.184-2.556 2.556-2.556 1.434 0 2.556 1.185 2.556 2.556s-1.185 2.556-2.556 2.556z" fill="#fff"></path>
		</symbol>
	
		<symbol id="icon-list-link-views" viewBox="0 0 48 48">
			<path d="M17.454 11.844H44.26v16.831H17.455v-16.83z" stroke="#fff" stroke-width="2"></path><path d="M20.447 15.086c-.25 0-.499.249-.499.498v9.413c0 .312.25.499.499.499.25 0 .498-.25.498-.499v-9.413c0-.249-.249-.498-.498-.498zm4.114-.125c-.25 0-.499.25-.499.499v9.475c0 .312.25.499.499.499.25 0 .499-.25.499-.499V15.46a.492.492 0 0 0-.499-.5zm3.803.125c-.25 0-.5.249-.5.498v9.413c0 .312.25.499.5.499.249 0 .498-.25.498-.499v-9.413c0-.249-.249-.498-.498-.498z" fill="#fff"></path><path d="M3.74 19.325h13.714v9.35h13.091v7.48H3.74v-16.83z" stroke="#fff" stroke-width="2"></path><path d="M19.2 28.177c-.25 0-.499.25-.499.498v3.803c0 .312.25.499.499.499.25 0 .499-.25.499-.499v-3.803c0-.249-.25-.498-.499-.498zm3.927 0c-.25 0-.498.25-.498.498v3.803c0 .312.249.499.498.499.25 0 .499-.25.499-.499v-3.803a.492.492 0 0 0-.499-.498zm3.99 0c-.25 0-.499.25-.499.498v3.803c0 .312.25.499.499.499.25 0 .499-.25.499-.499v-3.803c0-.249-.25-.498-.5-.498zm-19.761-5.61c-.25 0-.499.249-.499.498v9.413c0 .312.25.561.499.561.25 0 .499-.25.499-.498v-9.476c0-.25-.25-.498-.5-.498zm4.114-.125c-.25 0-.499.25-.499.498v9.476c0 .312.25.498.5.498.248 0 .498-.249.498-.498V22.94a.492.492 0 0 0-.499-.5zm3.803.125c-.25 0-.499.249-.499.498v9.413c0 .312.25.499.499.499.25 0 .498-.25.498-.499v-9.413c0-.25-.249-.498-.498-.498zm17.018-7.481c-.25 0-.499.25-.499.499v9.413c0 .311.25.498.499.498.25 0 .499-.249.499-.498v-9.413c0-.25-.25-.5-.5-.5zm3.927 0c-.25 0-.499.25-.499.499v9.413c0 .311.25.498.5.498.248 0 .498-.249.498-.498v-9.413a.492.492 0 0 0-.499-.5zm3.99 0c-.25 0-.499.25-.499.499v9.413c0 .311.25.498.499.498.25 0 .498-.249.498-.498v-9.413c0-.25-.249-.5-.498-.5z" fill="#fff"></path>
		</symbol>
	
		<symbol id="icon-list-tracking-arrow" viewBox="0 0 8 13">
			<path d="M.465 10.64l1.414 1.415 5.657-5.657L1.879.741.465 2.156l4.242 4.242-4.242 4.243z" fill="#1F4899"></path>
		</symbol>
	
		<symbol id="icon-maps-hint-change" viewBox="0 0 12 8">
			<path d="M1.76.465L.344 1.88l5.657 5.657 5.657-5.657L10.244.465 6.003 4.708 1.759.465z" fill="#1F4899"></path>
		</symbol>
	
		<symbol id="icon-maps-hint-country-uz" viewBox="0 0 28 20">
			<path fill="#fff" stroke="#F5F5F5" stroke-width=".5" d="M.25.25h27.5v19.5H.25z"></path><mask id="a" style="mask-type:alpha" maskUnits="userSpaceOnUse" x="0" y="0" width="28" height="20"><path fill="#fff" stroke="#fff" stroke-width=".5" d="M.25.25h27.5v19.5H.25z"></path></mask><g mask="url(#a)" fill-rule="evenodd" clip-rule="evenodd"><path d="M0 6.667h28V0H0v6.667z" fill="#04AAC8"></path><path d="M0 20h28v-6.667H0V20z" fill="#23C840"></path><path d="M4.667 5.333a1.99 1.99 0 0 0 1.111-.337 1.667 1.667 0 1 1 0-3.326 2 2 0 1 0-1.111 3.663zM8 4.667a.667.667 0 1 1-1.333 0 .667.667 0 0 1 1.333 0zm2-2a.667.667 0 1 0 0-1.334.667.667 0 0 0 0 1.334zM13.333 2A.667.667 0 1 1 12 2a.667.667 0 0 1 1.333 0zm-.666 3.333a.667.667 0 1 0 0-1.333.667.667 0 0 0 0 1.333zm-2-.666a.667.667 0 1 1-1.334 0 .667.667 0 0 1 1.334 0z" fill="#fff"></path></g>
		</symbol>
	
		<symbol id="icon-maps-hint-yes" viewBox="0 0 14 12">
			<path d="M5.385 11.27L0 5.562l1.507-1.54 3.85 4.024L12.433.5 14 2.01l-8.615 9.26z" fill="#0A9929"></path>
		</symbol>
	
		<symbol id="icon-menu-close" viewBox="0 0 16 16">
			<path d="M14.717 15.42L.575 1.276 1.282.57l14.142 14.142-.707.707z" fill="#fff"></path><path d="M.575 14.712L14.717.57l.707.707L1.282 15.42l-.707-.707z" fill="#fff"></path>
		</symbol>
	
		<symbol id="icon-menu-open" viewBox="0 0 20 14">
			<path d="M0 12.5h20v1H0v-1zM0 6.5h20v1H0v-1zM0 .5h20v1H0v-1z" fill="#262B33"></path>
		</symbol>
	
		<symbol id="icon-menu-open-white" viewBox="0 0 20 14">
			<path d="M0 12.5h20v1H0v-1zM0 6.5h20v1H0v-1zM0 .5h20v1H0v-1z"></path>
		</symbol>
	
		<symbol id="icon-menu-sub-rent" viewBox="0 0 36 36">
			<path fill-rule="evenodd" clip-rule="evenodd" d="M0 14.85h2.25v.9H.9V29.7h28.094v-1.35h.9v2.25H0V14.85z" fill="#fff"></path><path fill-rule="evenodd" clip-rule="evenodd" d="M21.28 10.35H3.15v17.1h31.054l-.004-.006V19.35h-.9v6.904l-3.407-4.508V19.35h-.9v1.205L21.279 10.35zm11.116 16.2h-2.503v-3.312l2.503 3.312zm-3.403 0v-4.502L20.83 11.25H4.05v15.3h3.407v-11.7h.9v11.7h3.407v-11.7h.9v11.7h3.407v-11.7h.9v11.7h3.408v-11.7h.9v11.7h3.407v-7.2h.9v7.2h3.407z" fill="#fff"></path><path d="M31.05 8.1v3.6H27.9v-.9h2.25V8.1h.9zm3.78 4.229l.81.407c.135-.352.234-.723.293-1.107l-.9-.071a4.426 4.426 0 0 1-.203.77zm-1.977 3.375l-.3-.854a4.5 4.5 0 0 0 .699-.42l.636.65a5.367 5.367 0 0 1-1.035.624zm2.394-2.158c-.198.334-.43.644-.693.927l-.632-.645a4.51 4.51 0 0 0 .517-.688l.808.406zM30.602 5.4c1.255 0 2.407.434 3.323 1.153l.982-.982.61 3.155-3.156-.609.922-.922a4.463 4.463 0 0 0-2.681-.895 4.506 4.506 0 0 0-4.502 4.5c0 2.481 2.02 4.5 4.502 4.5.381 0 .75-.053 1.104-.143l.3.853c-.448.12-.918.19-1.404.19a5.401 5.401 0 1 1 0-10.8zM36 10.732l-.907-.072a4.566 4.566 0 0 0-.13-.922h.935c.064.322.097.654.102.994z" fill="#fff"></path>
		</symbol>
	
		<symbol id="icon-menu-sub-sale" viewBox="0 0 36 36">
			<path fill-rule="evenodd" clip-rule="evenodd" d="M0 14.85h2.25v.9H.9V29.7h28.094v-1.35h.9v2.25H0V14.85z" fill="#fff"></path><path fill-rule="evenodd" clip-rule="evenodd" d="M21.28 10.35H3.15v17.1h31.054l-.004-.006V19.35h-.9v6.904l-3.407-4.508V19.35h-.9v1.205L21.279 10.35zm11.116 16.2h-2.503v-3.312l2.503 3.312zm-3.403 0v-4.502L20.83 11.25H4.05v15.3h3.407v-11.7h.9v11.7h3.407v-11.7h.9v11.7h3.407v-11.7h.9v11.7h3.408v-11.7h.9v11.7h3.407v-7.2h.9v7.2h3.407zM29.554 8.159c.686-.305 1.603-.482 2.59-.482.99 0 1.905.177 2.591.482.343.152.648.345.873.582.228.24.392.544.392.9 0 .354-.164.66-.392.898-.225.237-.53.43-.872.582-.687.305-1.603.482-2.591.482-.988 0-1.905-.177-2.59-.482-.343-.152-.648-.345-.874-.582-.227-.239-.391-.544-.391-.899s.164-.66.391-.9c.226-.236.53-.429.873-.581zm-.22 1.202c-.118.123-.144.217-.144.28 0 .062.026.155.143.278.12.125.313.258.587.38.546.243 1.332.405 2.225.405.892 0 1.679-.162 2.225-.405.274-.122.467-.255.587-.38.116-.123.143-.216.143-.279 0-.062-.027-.156-.144-.279-.119-.125-.312-.258-.586-.38-.546-.243-1.333-.404-2.225-.404-.893 0-1.679.161-2.225.404-.274.122-.468.255-.587.38z" fill="#fff"></path><path fill-rule="evenodd" clip-rule="evenodd" d="M28.74 9.19a.45.45 0 0 1 .45.45v4.54c0 .063.026.156.142.279.119.125.311.258.584.38.545.242 1.33.405 2.229.405.898 0 1.684-.162 2.228-.405.273-.122.466-.255.584-.38.117-.123.143-.216.143-.278V9.64a.45.45 0 0 1 .9 0v4.54c0 .354-.163.658-.39.897-.224.237-.528.43-.87.582-.685.306-1.601.484-2.595.484-.994 0-1.91-.178-2.596-.484-.341-.152-.645-.345-.87-.582-.227-.24-.39-.543-.39-.897V9.64a.45.45 0 0 1 .45-.45z" fill="#fff"></path><path fill-rule="evenodd" clip-rule="evenodd" d="M28.74 11.46a.45.45 0 0 1 .45.45c0 .062.026.155.142.278.119.125.311.258.584.38.545.243 1.33.405 2.229.405.898 0 1.684-.162 2.228-.405.273-.122.466-.255.584-.38.117-.123.143-.216.143-.278a.45.45 0 0 1 .9 0c0 .354-.163.658-.39.897-.224.237-.528.43-.87.583-.685.305-1.601.483-2.595.483-.994 0-1.91-.178-2.596-.483-.341-.153-.645-.346-.87-.583-.227-.24-.39-.543-.39-.897a.45.45 0 0 1 .45-.45zM29.107 5.407a5.573 5.573 0 0 1 3.199.823.45.45 0 1 1-.473.766 4.673 4.673 0 0 0-2.715-.69c-.894 0-1.68.163-2.226.406-.273.122-.467.255-.586.38-.117.123-.143.217-.143.278 0 .065.03.168.17.305.143.139.371.284.687.414a.45.45 0 0 1-.344.832c-.38-.157-.72-.357-.97-.602-.253-.246-.443-.567-.443-.949 0-.355.164-.659.391-.898.225-.236.53-.43.872-.582.683-.304 1.595-.482 2.58-.483z" fill="#fff"></path><path fill-rule="evenodd" clip-rule="evenodd" d="M25.713 6.92a.45.45 0 0 1 .45.45v4.54c0 .065.03.168.17.306.143.138.371.283.687.414a.45.45 0 0 1-.344.831c-.38-.157-.72-.356-.97-.601-.253-.247-.443-.568-.443-.95V7.37a.45.45 0 0 1 .45-.45z" fill="#fff"></path><path fill-rule="evenodd" clip-rule="evenodd" d="M25.713 9.19a.45.45 0 0 1 .45.45c0 .065.03.168.17.305.143.14.371.284.687.415a.45.45 0 1 1-.344.831c-.38-.157-.72-.356-.97-.602-.253-.246-.443-.567-.443-.949a.45.45 0 0 1 .45-.45z" fill="#fff"></path>
		</symbol>
	
		<symbol id="icon-menu-sub-transporation" viewBox="0 0 36 36">
			<path fill-rule="evenodd" clip-rule="evenodd" d="M2.475 16.875v17.1h31.05v-17.1H2.475zm30.15.9H3.375v15.3h3.407v-11.7h.9v11.7h3.407v-11.7h.9v11.7h3.407v-11.7h.9v11.7h3.408v-11.7h.9v11.7h3.407v-11.7h.9v11.7h3.407v-11.7h.9v11.7h3.407v-15.3z" fill="#fff"></path><path d="M20.475 2.025h-4.95v.9h2.025v3.43h.899A1.802 1.802 0 1 1 16.197 8.1H15.3a2.7 2.7 0 0 0 1.76 2.531L6.962 16.943l.477.764L18 11.106l10.561 6.6.477-.763-10.099-6.312a2.7 2.7 0 0 0-.489-5.193V2.925h2.025v-.9z" fill="#fff"></path>
		</symbol>
	
		<symbol id="icon-personal-data" viewBox="0 0 12 16">
			<path d="M6 0C3.753 1.91 2.344 2 0 2v7.69c0 3.069 2.135 3.87 6 6.31 3.865-2.44 6-3.241 6-6.31V2c-2.344 0-3.753-.09-6-2zm-.365 10L3.333 7.759l.825-.826 1.477 1.415 2.921-2.983.825.825L5.635 10z" fill="#fff"></path>
		</symbol>
	
		<symbol id="icon-select" viewBox="0 0 12 9">
			<path d="M1.759.965L.345 2.379l5.657 5.657 5.656-5.657L10.244.965 6.002 5.208 1.759.965z" fill="#1F4899"></path>
		</symbol>
	
		<symbol id="icon-servises-rent" viewBox="0 0 80 80">
			<path fill-rule="evenodd" clip-rule="evenodd" d="M0 33h5v2H2v31h62.43v-3h2v5H0V33z" fill="#fff"></path><path fill-rule="evenodd" clip-rule="evenodd" d="M47.288 23H7v38h69.01l-.01-.012V43h-2v15.342l-7.571-10.018V43h-2v2.678L47.288 23zM71.99 59h-5.562v-7.359L71.99 59zm-7.562 0V48.995L46.292 25H9v34h7.571V33h2v26h7.572V33h2v26h7.571V33h2v26h7.572V33h2v26h7.571V43h2v16h7.572z" fill="#fff"></path><path d="M69 18v8h-7v-2h5v-6h2zm8.4 9.397l1.799.906c.302-.784.521-1.607.652-2.46l-1.998-.159c-.1.59-.253 1.162-.453 1.713zm-4.393 7.501l-.669-1.899a9.992 9.992 0 0 0 1.555-.933l1.413 1.443a11.93 11.93 0 0 1-2.299 1.389zm5.319-4.795c-.44.741-.956 1.43-1.539 2.058l-1.404-1.433c.431-.471.814-.982 1.149-1.528l1.794.903zM68.004 12c2.79 0 5.349.964 7.385 2.562l2.183-2.183 1.356 7.013-7.015-1.354 2.05-2.049A9.918 9.918 0 0 0 68.004 14c-5.516 0-10.003 4.486-10.003 10s4.487 10 10.003 10c.848 0 1.668-.118 2.455-.317l.665 1.894c-.996.267-2.039.423-3.12.423C61.375 36 56 30.627 56 24s5.375-12 12.004-12zM80 23.849l-2.015-.161a10.162 10.162 0 0 0-.288-2.047h2.076c.142.714.217 1.453.227 2.208z" fill="#fff"></path>
		</symbol>
	
		<symbol id="icon-servises-sale" viewBox="0 0 80 80">
			<path fill-rule="evenodd" clip-rule="evenodd" d="M0 33h5v2H2v31h62.43v-3h2v5H0V33z" fill="#fff"></path><path fill-rule="evenodd" clip-rule="evenodd" d="M47.288 23H7v38h69.01l-.01-.012V43h-2v15.342l-7.571-10.018V43h-2v2.678L47.288 23zM71.99 59h-5.562v-7.359L71.99 59zm-7.562 0V48.995L46.292 25H9v34h7.571V33h2v26h7.572V33h2v26h7.571V33h2v26h7.572V33h2v26h7.571V43h2v16h7.572zM65.676 18.13c1.525-.677 3.561-1.07 5.757-1.07 2.196 0 4.232.393 5.757 1.07.761.339 1.439.767 1.94 1.294.506.532.87 1.209.87 1.998 0 .79-.364 1.467-.87 1.999-.501.526-1.179.955-1.94 1.293-1.525.678-3.56 1.072-5.757 1.072-2.196 0-4.232-.394-5.757-1.072-.76-.338-1.439-.767-1.94-1.293-.506-.532-.87-1.209-.87-1.999s.364-1.466.87-1.998c.501-.527 1.18-.955 1.94-1.294zm-.49 2.673c-.26.273-.32.48-.32.62 0 .138.06.346.32.619.264.278.694.574 1.302.845 1.215.54 2.962.898 4.945.898s3.73-.359 4.945-.898c.608-.27 1.038-.567 1.303-.845.26-.273.32-.48.32-.62 0-.139-.06-.346-.32-.62-.265-.278-.695-.574-1.303-.844-1.214-.54-2.962-.899-4.945-.899s-3.73.36-4.945.9c-.608.27-1.038.565-1.303.844z" fill="#fff"></path><path fill-rule="evenodd" clip-rule="evenodd" d="M63.866 20.423a1 1 0 0 1 1 1v10.09c0 .138.059.345.317.617.263.278.691.574 1.297.844 1.21.54 2.958.902 4.953.902 1.996 0 3.742-.362 4.953-.902.606-.27 1.034-.566 1.297-.844.258-.272.317-.48.317-.618V21.423a1 1 0 1 1 2 0v10.09c0 .786-.362 1.461-.865 1.993-.5.526-1.175.956-1.934 1.295-1.523.679-3.56 1.075-5.768 1.075-2.208 0-4.245-.396-5.767-1.075-.76-.34-1.436-.769-1.935-1.295-.503-.532-.865-1.207-.865-1.994V21.423a1 1 0 0 1 1-1z" fill="#fff"></path><path fill-rule="evenodd" clip-rule="evenodd" d="M63.866 25.466a1 1 0 0 1 1 1c0 .139.059.346.317.618.263.278.691.574 1.297.844 1.21.54 2.958.902 4.953.902 1.996 0 3.742-.362 4.953-.902.606-.27 1.034-.566 1.297-.844.258-.272.317-.48.317-.618a1 1 0 1 1 2 0c0 .787-.362 1.463-.865 1.994-.5.527-1.175.956-1.934 1.295-1.523.679-3.56 1.075-5.768 1.075-2.208 0-4.245-.396-5.767-1.075-.76-.34-1.436-.768-1.935-1.295-.503-.531-.865-1.207-.865-1.994a1 1 0 0 1 1-1zM64.682 12.015c2.5-.122 4.978.516 7.108 1.83a1 1 0 0 1-1.05 1.702 10.384 10.384 0 0 0-6.033-1.532c-1.987 0-3.734.36-4.947.901-.607.27-1.037.567-1.302.845-.26.273-.318.48-.318.617 0 .144.067.372.38.678.316.308.822.63 1.524.92a1 1 0 1 1-.763 1.849c-.846-.35-1.6-.793-2.158-1.338-.562-.548-.983-1.26-.983-2.11 0-.787.364-1.463.869-1.994.5-.526 1.177-.955 1.937-1.294 1.518-.676 3.545-1.071 5.736-1.074z" fill="#fff"></path><path fill-rule="evenodd" clip-rule="evenodd" d="M57.14 15.378a1 1 0 0 1 1 1v10.09c0 .143.067.372.38.677.316.309.822.63 1.524.92a1 1 0 0 1-.763 1.85c-.846-.35-1.6-.793-2.158-1.338-.562-.548-.983-1.261-.983-2.11V16.379a1 1 0 0 1 1-1z" fill="#fff"></path><path fill-rule="evenodd" clip-rule="evenodd" d="M57.14 20.423a1 1 0 0 1 1 1c0 .144.067.373.38.678.316.308.822.63 1.524.92a1 1 0 1 1-.763 1.849c-.846-.35-1.6-.793-2.158-1.338-.562-.548-.983-1.26-.983-2.109a1 1 0 0 1 1-1z" fill="#fff"></path>
		</symbol>
	
		<symbol id="icon-video-play" viewBox="0 0 14 16">
			<path d="M.5 15.5V.5L14 8 .5 15.5z"></path>
		</symbol>
	
</svg>
